<svg width="1280" height="333" viewBox="0 0 1280 333" fill="none" xmlns="http://www.w3.org/2000/svg">
<rect x="1256" y="333" width="333" height="24" transform="rotate(-90 1256 333)" fill="#4F56FF"/>
<rect x="1256" y="270" width="270" height="24" transform="rotate(-90 1256 270)" fill="#FFA155"/>
<rect x="1256" y="270" width="195" height="24" transform="rotate(-90 1256 270)" fill="#FFD3AF"/>
<rect width="1256" height="333" fill="#666DFF"/>
<path d="M10.8474 29.3785V0H88.5875V29.3785H10.8474Z" fill="white" fill-opacity="0.4"/>
<path d="M0 50.6215V0H61.9209V50.6215H0Z" fill="#FFA155"/>
<path d="M32.5425 29.3785V0H61.921V29.3785H32.5425Z" fill="#FFD3AF"/>
<path d="M0 80V50.6215H29.3785V80H0Z" fill="white" fill-opacity="0.4"/>
<rect x="1016" y="141" width="144" height="64" fill="#FFD3AF"/>
<path opacity="0.87" d="M1056.53 175.992C1056.53 176.547 1056.39 177.064 1056.13 177.544C1055.86 178.013 1055.46 178.392 1054.91 178.68C1054.37 178.968 1053.7 179.112 1052.91 179.112C1052.14 179.112 1051.46 178.979 1050.85 178.712C1050.24 178.435 1049.75 178.051 1049.39 177.56C1049.03 177.069 1048.82 176.504 1048.77 175.864H1050.72C1050.77 176.355 1050.98 176.776 1051.34 177.128C1051.72 177.48 1052.21 177.656 1052.83 177.656C1053.39 177.656 1053.81 177.507 1054.11 177.208C1054.42 176.909 1054.58 176.525 1054.58 176.056C1054.58 175.651 1054.46 175.32 1054.24 175.064C1054.02 174.797 1053.74 174.589 1053.41 174.44C1053.08 174.291 1052.62 174.12 1052.05 173.928C1051.34 173.704 1050.77 173.48 1050.32 173.256C1049.88 173.032 1049.51 172.707 1049.2 172.28C1048.89 171.853 1048.74 171.293 1048.74 170.6C1048.74 169.992 1048.89 169.459 1049.18 169C1049.48 168.541 1049.91 168.189 1050.46 167.944C1051.02 167.688 1051.66 167.56 1052.38 167.56C1053.54 167.56 1054.45 167.837 1055.12 168.392C1055.8 168.947 1056.19 169.672 1056.29 170.568H1054.32C1054.25 170.141 1054.04 169.779 1053.71 169.48C1053.39 169.171 1052.95 169.016 1052.38 169.016C1051.87 169.016 1051.46 169.149 1051.15 169.416C1050.84 169.672 1050.69 170.045 1050.69 170.536C1050.69 170.92 1050.79 171.24 1051.01 171.496C1051.22 171.741 1051.49 171.939 1051.81 172.088C1052.14 172.227 1052.59 172.392 1053.15 172.584C1053.87 172.808 1054.45 173.037 1054.9 173.272C1055.35 173.496 1055.74 173.827 1056.05 174.264C1056.37 174.701 1056.53 175.277 1056.53 175.992ZM1066.48 170.184V179H1064.64V177.08C1064.42 177.731 1064.03 178.237 1063.47 178.6C1062.92 178.952 1062.27 179.128 1061.54 179.128C1060.51 179.128 1059.69 178.797 1059.07 178.136C1058.46 177.475 1058.15 176.531 1058.15 175.304V170.184H1059.97V175.112C1059.97 175.912 1060.17 176.531 1060.58 176.968C1060.98 177.395 1061.54 177.608 1062.24 177.608C1062.97 177.608 1063.55 177.373 1063.99 176.904C1064.42 176.435 1064.64 175.752 1064.64 174.856V170.184H1066.48ZM1073.72 170.072C1074.49 170.072 1075.17 170.253 1075.77 170.616C1076.38 170.979 1076.85 171.501 1077.19 172.184C1077.54 172.867 1077.71 173.667 1077.71 174.584C1077.71 175.512 1077.54 176.317 1077.19 177C1076.85 177.683 1076.38 178.205 1075.77 178.568C1075.17 178.931 1074.49 179.112 1073.72 179.112C1072.92 179.112 1072.24 178.915 1071.67 178.52C1071.11 178.125 1070.71 177.603 1070.49 176.952V179H1068.67V167.16H1070.49V172.232C1070.71 171.581 1071.11 171.059 1071.67 170.664C1072.24 170.269 1072.92 170.072 1073.72 170.072ZM1073.16 171.672C1072.65 171.672 1072.19 171.795 1071.79 172.04C1071.38 172.275 1071.06 172.616 1070.83 173.064C1070.59 173.501 1070.47 174.008 1070.47 174.584C1070.47 175.171 1070.59 175.683 1070.83 176.12C1071.06 176.557 1071.38 176.899 1071.79 177.144C1072.19 177.379 1072.65 177.496 1073.16 177.496C1073.97 177.496 1074.62 177.24 1075.11 176.728C1075.61 176.205 1075.85 175.491 1075.85 174.584C1075.85 173.688 1075.61 172.979 1075.11 172.456C1074.62 171.933 1073.97 171.672 1073.16 171.672ZM1082.36 170.072C1083.39 170.072 1084.22 170.339 1084.84 170.872C1085.47 171.395 1085.85 172.099 1085.99 172.984H1084.26C1084.19 172.504 1083.98 172.12 1083.64 171.832C1083.31 171.533 1082.87 171.384 1082.31 171.384C1081.85 171.384 1081.5 171.496 1081.24 171.72C1080.99 171.933 1080.87 172.227 1080.87 172.6C1080.87 172.877 1080.96 173.101 1081.14 173.272C1081.32 173.443 1081.55 173.576 1081.82 173.672C1082.09 173.768 1082.48 173.875 1082.98 173.992C1083.64 174.141 1084.18 174.296 1084.58 174.456C1085 174.616 1085.35 174.872 1085.64 175.224C1085.94 175.565 1086.09 176.035 1086.09 176.632C1086.09 177.368 1085.8 177.965 1085.24 178.424C1084.68 178.883 1083.93 179.112 1082.98 179.112C1081.88 179.112 1080.99 178.856 1080.31 178.344C1079.64 177.832 1079.23 177.117 1079.1 176.2H1080.87C1080.92 176.68 1081.14 177.069 1081.51 177.368C1081.88 177.667 1082.38 177.816 1082.98 177.816C1083.42 177.816 1083.76 177.704 1084.01 177.48C1084.26 177.245 1084.39 176.952 1084.39 176.6C1084.39 176.291 1084.3 176.045 1084.1 175.864C1083.91 175.683 1083.67 175.544 1083.38 175.448C1083.1 175.341 1082.7 175.235 1082.2 175.128C1081.56 174.979 1081.04 174.829 1080.63 174.68C1080.24 174.531 1079.9 174.291 1079.61 173.96C1079.33 173.619 1079.19 173.16 1079.19 172.584C1079.19 171.837 1079.47 171.235 1080.02 170.776C1080.59 170.307 1081.37 170.072 1082.36 170.072ZM1091.84 170.072C1092.98 170.072 1093.92 170.376 1094.67 170.984C1095.42 171.581 1095.88 172.397 1096.06 173.432H1094.12C1094.02 172.877 1093.76 172.445 1093.34 172.136C1092.94 171.816 1092.42 171.656 1091.8 171.656C1091.1 171.656 1090.51 171.907 1090.04 172.408C1089.58 172.899 1089.34 173.624 1089.34 174.584C1089.34 175.544 1089.58 176.275 1090.04 176.776C1090.51 177.277 1091.1 177.528 1091.8 177.528C1092.42 177.528 1092.94 177.368 1093.34 177.048C1093.76 176.728 1094.02 176.291 1094.12 175.736H1096.06C1095.88 176.771 1095.42 177.592 1094.67 178.2C1093.92 178.808 1092.98 179.112 1091.84 179.112C1090.98 179.112 1090.23 178.931 1089.56 178.568C1088.91 178.205 1088.4 177.683 1088.03 177C1087.66 176.317 1087.47 175.512 1087.47 174.584C1087.47 173.667 1087.66 172.867 1088.03 172.184C1088.4 171.501 1088.91 170.979 1089.56 170.616C1090.23 170.253 1090.98 170.072 1091.84 170.072ZM1099.65 171.912C1099.95 171.336 1100.37 170.883 1100.93 170.552C1101.48 170.211 1102.12 170.04 1102.85 170.04V172.024H1102.3C1101.5 172.024 1100.86 172.221 1100.37 172.616C1099.89 173 1099.65 173.64 1099.65 174.536V179H1097.82V170.184H1099.65V171.912ZM1103.96 167.624C1103.96 167.315 1104.06 167.059 1104.28 166.856C1104.49 166.653 1104.77 166.552 1105.13 166.552C1105.48 166.552 1105.76 166.653 1105.97 166.856C1106.2 167.059 1106.31 167.315 1106.31 167.624C1106.31 167.933 1106.2 168.184 1105.97 168.376C1105.76 168.568 1105.48 168.664 1105.13 168.664C1104.77 168.664 1104.49 168.568 1104.28 168.376C1104.06 168.184 1103.96 167.933 1103.96 167.624ZM1106.04 170.184V179H1104.21V170.184H1106.04ZM1113.3 170.072C1114.07 170.072 1114.75 170.253 1115.35 170.616C1115.96 170.979 1116.43 171.501 1116.77 172.184C1117.11 172.867 1117.28 173.667 1117.28 174.584C1117.28 175.512 1117.11 176.317 1116.77 177C1116.43 177.683 1115.96 178.205 1115.35 178.568C1114.75 178.931 1114.07 179.112 1113.3 179.112C1112.5 179.112 1111.82 178.915 1111.25 178.52C1110.69 178.125 1110.29 177.603 1110.07 176.952V179H1108.24V167.16H1110.07V172.232C1110.29 171.581 1110.69 171.059 1111.25 170.664C1111.82 170.269 1112.5 170.072 1113.3 170.072ZM1112.74 171.672C1112.23 171.672 1111.77 171.795 1111.36 172.04C1110.96 172.275 1110.64 172.616 1110.4 173.064C1110.17 173.501 1110.05 174.008 1110.05 174.584C1110.05 175.171 1110.17 175.683 1110.4 176.12C1110.64 176.557 1110.96 176.899 1111.36 177.144C1111.77 177.379 1112.23 177.496 1112.74 177.496C1113.55 177.496 1114.2 177.24 1114.69 176.728C1115.18 176.205 1115.43 175.491 1115.43 174.584C1115.43 173.688 1115.18 172.979 1114.69 172.456C1114.2 171.933 1113.55 171.672 1112.74 171.672ZM1127.23 174.168C1127.23 174.467 1127.21 174.728 1127.17 174.952H1120.39C1120.42 175.859 1120.67 176.531 1121.14 176.968C1121.61 177.405 1122.19 177.624 1122.88 177.624C1123.49 177.624 1124 177.469 1124.42 177.16C1124.84 176.851 1125.11 176.44 1125.2 175.928H1127.15C1127.04 176.547 1126.79 177.096 1126.42 177.576C1126.04 178.056 1125.56 178.435 1124.96 178.712C1124.36 178.979 1123.7 179.112 1122.96 179.112C1122.11 179.112 1121.35 178.931 1120.69 178.568C1120.04 178.205 1119.53 177.683 1119.15 177C1118.78 176.317 1118.59 175.512 1118.59 174.584C1118.59 173.667 1118.78 172.867 1119.15 172.184C1119.53 171.501 1120.04 170.979 1120.69 170.616C1121.35 170.253 1122.11 170.072 1122.96 170.072C1123.83 170.072 1124.58 170.253 1125.22 170.616C1125.87 170.968 1126.36 171.459 1126.71 172.088C1127.06 172.707 1127.23 173.4 1127.23 174.168ZM1125.39 174.12C1125.41 173.544 1125.31 173.064 1125.09 172.68C1124.88 172.285 1124.58 171.997 1124.19 171.816C1123.82 171.624 1123.41 171.528 1122.96 171.528C1122.25 171.528 1121.65 171.747 1121.17 172.184C1120.69 172.621 1120.43 173.267 1120.39 174.12H1125.39Z" fill="#232536"/>
<rect x="706" y="141" width="454" height="64" fill="white"/>
<path opacity="0.4" d="M738.553 174.616V179H736.729V167.704H740.569C741.87 167.704 742.846 168.013 743.497 168.632C744.158 169.251 744.489 170.099 744.489 171.176C744.489 172.243 744.153 173.085 743.481 173.704C742.809 174.312 741.838 174.616 740.569 174.616H738.553ZM740.377 173.128C741.881 173.128 742.633 172.477 742.633 171.176C742.633 170.536 742.452 170.051 742.089 169.72C741.737 169.379 741.166 169.208 740.377 169.208H738.553V173.128H740.377ZM749.624 170.072C750.424 170.072 751.107 170.269 751.672 170.664C752.238 171.059 752.638 171.581 752.872 172.232V170.184H754.696V179H752.872V176.952C752.638 177.603 752.238 178.125 751.672 178.52C751.107 178.915 750.424 179.112 749.624 179.112C748.856 179.112 748.168 178.931 747.56 178.568C746.963 178.205 746.494 177.683 746.152 177C745.811 176.317 745.64 175.512 745.64 174.584C745.64 173.667 745.811 172.867 746.152 172.184C746.494 171.501 746.963 170.979 747.56 170.616C748.168 170.253 748.856 170.072 749.624 170.072ZM750.184 171.672C749.374 171.672 748.723 171.933 748.232 172.456C747.752 172.968 747.512 173.677 747.512 174.584C747.512 175.491 747.752 176.205 748.232 176.728C748.723 177.24 749.374 177.496 750.184 177.496C750.696 177.496 751.155 177.379 751.56 177.144C751.966 176.899 752.286 176.557 752.52 176.12C752.755 175.683 752.872 175.171 752.872 174.584C752.872 174.008 752.755 173.501 752.52 173.064C752.286 172.616 751.966 172.275 751.56 172.04C751.155 171.795 750.696 171.672 750.184 171.672ZM758.709 171.912C759.008 171.336 759.435 170.883 759.989 170.552C760.544 170.211 761.184 170.04 761.909 170.04V172.024H761.365C760.565 172.024 759.92 172.221 759.429 172.616C758.949 173 758.709 173.64 758.709 174.536V179H756.885V170.184H758.709V171.912ZM771.468 174.168C771.468 174.467 771.447 174.728 771.404 174.952H764.62C764.652 175.859 764.903 176.531 765.372 176.968C765.841 177.405 766.423 177.624 767.116 177.624C767.724 177.624 768.236 177.469 768.652 177.16C769.079 176.851 769.34 176.44 769.436 175.928H771.388C771.271 176.547 771.025 177.096 770.652 177.576C770.279 178.056 769.793 178.435 769.196 178.712C768.599 178.979 767.932 179.112 767.196 179.112C766.343 179.112 765.585 178.931 764.924 178.568C764.273 178.205 763.761 177.683 763.388 177C763.015 176.317 762.828 175.512 762.828 174.584C762.828 173.667 763.015 172.867 763.388 172.184C763.761 171.501 764.273 170.979 764.924 170.616C765.585 170.253 766.343 170.072 767.196 170.072C768.06 170.072 768.812 170.253 769.452 170.616C770.103 170.968 770.599 171.459 770.94 172.088C771.292 172.707 771.468 173.4 771.468 174.168ZM769.628 174.12C769.649 173.544 769.548 173.064 769.324 172.68C769.111 172.285 768.812 171.997 768.428 171.816C768.055 171.624 767.644 171.528 767.196 171.528C766.481 171.528 765.884 171.747 765.404 172.184C764.924 172.621 764.663 173.267 764.62 174.12H769.628ZM776.125 170.072C777.16 170.072 777.986 170.339 778.605 170.872C779.234 171.395 779.618 172.099 779.757 172.984H778.029C777.954 172.504 777.746 172.12 777.405 171.832C777.074 171.533 776.632 171.384 776.077 171.384C775.618 171.384 775.261 171.496 775.005 171.72C774.76 171.933 774.637 172.227 774.637 172.6C774.637 172.877 774.728 173.101 774.909 173.272C775.09 173.443 775.314 173.576 775.581 173.672C775.858 173.768 776.248 173.875 776.749 173.992C777.41 174.141 777.944 174.296 778.349 174.456C778.765 174.616 779.117 174.872 779.405 175.224C779.704 175.565 779.853 176.035 779.853 176.632C779.853 177.368 779.57 177.965 779.005 178.424C778.45 178.883 777.698 179.112 776.749 179.112C775.65 179.112 774.76 178.856 774.077 178.344C773.405 177.832 773 177.117 772.861 176.2H774.637C774.69 176.68 774.904 177.069 775.277 177.368C775.65 177.667 776.141 177.816 776.749 177.816C777.186 177.816 777.528 177.704 777.773 177.48C778.029 177.245 778.157 176.952 778.157 176.6C778.157 176.291 778.061 176.045 777.869 175.864C777.677 175.683 777.437 175.544 777.149 175.448C776.861 175.341 776.466 175.235 775.965 175.128C775.325 174.979 774.802 174.829 774.397 174.68C774.002 174.531 773.661 174.291 773.373 173.96C773.096 173.619 772.957 173.16 772.957 172.584C772.957 171.837 773.234 171.235 773.789 170.776C774.354 170.307 775.133 170.072 776.125 170.072ZM786.61 170.04C787.634 170.04 788.455 170.371 789.074 171.032C789.693 171.693 790.002 172.637 790.002 173.864V179H788.178V174.056C788.178 173.267 787.975 172.659 787.57 172.232C787.165 171.795 786.61 171.576 785.906 171.576C785.181 171.576 784.599 171.811 784.162 172.28C783.725 172.739 783.506 173.416 783.506 174.312V179H781.682V167.16H783.506V172.12C783.741 171.459 784.135 170.947 784.69 170.584C785.245 170.221 785.885 170.04 786.61 170.04ZM801.367 166.232C803.021 166.232 804.445 166.525 805.639 167.112C806.834 167.699 807.741 168.541 808.359 169.64C808.989 170.728 809.303 172.019 809.303 173.512C809.303 174.557 809.106 175.512 808.711 176.376C808.327 177.229 807.805 177.907 807.143 178.408C806.493 178.899 805.794 179.144 805.047 179.144C804.354 179.144 803.805 178.979 803.399 178.648C803.005 178.317 802.802 177.779 802.791 177.032C802.023 178.44 800.898 179.144 799.415 179.144C798.754 179.144 798.167 178.984 797.655 178.664C797.143 178.344 796.743 177.896 796.455 177.32C796.167 176.733 796.023 176.061 796.023 175.304C796.023 174.301 796.237 173.4 796.663 172.6C797.09 171.8 797.677 171.176 798.423 170.728C799.17 170.269 800.002 170.04 800.919 170.04C801.698 170.04 802.37 170.189 802.935 170.488C803.501 170.787 803.933 171.208 804.231 171.752C804.53 172.285 804.679 172.904 804.679 173.608C804.679 173.832 804.663 174.072 804.631 174.328L804.327 176.264C804.306 176.456 804.295 176.589 804.295 176.664C804.295 176.984 804.37 177.213 804.519 177.352C804.669 177.48 804.882 177.544 805.159 177.544C805.554 177.544 805.922 177.389 806.263 177.08C806.615 176.771 806.898 176.317 807.111 175.72C807.325 175.112 807.431 174.397 807.431 173.576C807.431 172.403 807.191 171.379 806.711 170.504C806.231 169.629 805.517 168.952 804.567 168.472C803.618 167.981 802.466 167.736 801.111 167.736C799.533 167.736 798.173 168.072 797.031 168.744C795.901 169.405 795.042 170.312 794.455 171.464C793.869 172.605 793.575 173.891 793.575 175.32C793.575 177.368 794.162 178.931 795.335 180.008C796.509 181.096 798.199 181.645 800.407 181.656L800.055 183.176C798.317 183.155 796.829 182.835 795.591 182.216C794.354 181.608 793.41 180.717 792.759 179.544C792.109 178.381 791.783 176.973 791.783 175.32C791.783 173.56 792.194 171.992 793.015 170.616C793.837 169.229 794.973 168.152 796.423 167.384C797.885 166.616 799.533 166.232 801.367 166.232ZM800.023 177.544C800.535 177.544 801.01 177.405 801.447 177.128C801.885 176.851 802.231 176.445 802.487 175.912C802.754 175.368 802.887 174.733 802.887 174.008C802.887 173.272 802.685 172.696 802.279 172.28C801.874 171.864 801.319 171.656 800.615 171.656C800.093 171.656 799.618 171.795 799.191 172.072C798.765 172.349 798.423 172.749 798.167 173.272C797.922 173.784 797.799 174.387 797.799 175.08C797.799 175.837 798.002 176.44 798.407 176.888C798.823 177.325 799.362 177.544 800.023 177.544ZM812.819 174.616V179H810.995V167.704H814.835C816.136 167.704 817.112 168.013 817.763 168.632C818.424 169.251 818.755 170.099 818.755 171.176C818.755 172.243 818.419 173.085 817.747 173.704C817.075 174.312 816.104 174.616 814.835 174.616H812.819ZM814.643 173.128C816.147 173.128 816.899 172.477 816.899 171.176C816.899 170.536 816.717 170.051 816.355 169.72C816.003 169.379 815.432 169.208 814.643 169.208H812.819V173.128H814.643ZM820.098 167.624C820.098 167.315 820.205 167.059 820.418 166.856C820.631 166.653 820.914 166.552 821.266 166.552C821.618 166.552 821.901 166.653 822.114 166.856C822.338 167.059 822.45 167.315 822.45 167.624C822.45 167.933 822.338 168.184 822.114 168.376C821.901 168.568 821.618 168.664 821.266 168.664C820.914 168.664 820.631 168.568 820.418 168.376C820.205 168.184 820.098 167.933 820.098 167.624ZM822.178 170.184V179H820.354V170.184H822.178ZM829.601 179L827.441 175.88L825.553 179H823.521L826.433 174.424L823.489 170.184H825.553L827.665 173.224L829.537 170.184H831.553L828.641 174.632L831.665 179H829.601ZM841.124 174.168C841.124 174.467 841.103 174.728 841.06 174.952H834.276C834.308 175.859 834.559 176.531 835.028 176.968C835.497 177.405 836.079 177.624 836.772 177.624C837.38 177.624 837.892 177.469 838.308 177.16C838.735 176.851 838.996 176.44 839.092 175.928H841.044C840.927 176.547 840.681 177.096 840.308 177.576C839.935 178.056 839.449 178.435 838.852 178.712C838.255 178.979 837.588 179.112 836.852 179.112C835.999 179.112 835.241 178.931 834.58 178.568C833.929 178.205 833.417 177.683 833.044 177C832.671 176.317 832.484 175.512 832.484 174.584C832.484 173.667 832.671 172.867 833.044 172.184C833.417 171.501 833.929 170.979 834.58 170.616C835.241 170.253 835.999 170.072 836.852 170.072C837.716 170.072 838.468 170.253 839.108 170.616C839.759 170.968 840.255 171.459 840.596 172.088C840.948 172.707 841.124 173.4 841.124 174.168ZM839.284 174.12C839.305 173.544 839.204 173.064 838.98 172.68C838.767 172.285 838.468 171.997 838.084 171.816C837.711 171.624 837.3 171.528 836.852 171.528C836.137 171.528 835.54 171.747 835.06 172.184C834.58 172.621 834.319 173.267 834.276 174.12H839.284ZM847.317 177.416V179H846.197C845.259 179 844.544 178.776 844.053 178.328C843.573 177.869 843.333 177.112 843.333 176.056V171.736H842.069V170.184H843.333V167.992H845.173V170.184H847.301V171.736H845.173V176.088C845.173 176.589 845.264 176.936 845.445 177.128C845.637 177.32 845.968 177.416 846.437 177.416H847.317ZM853.058 170.072C853.911 170.072 854.679 170.253 855.362 170.616C856.045 170.979 856.578 171.501 856.962 172.184C857.346 172.867 857.538 173.667 857.538 174.584C857.538 175.512 857.346 176.317 856.962 177C856.578 177.683 856.045 178.205 855.362 178.568C854.679 178.931 853.911 179.112 853.058 179.112C852.205 179.112 851.437 178.931 850.754 178.568C850.082 178.205 849.549 177.683 849.154 177C848.77 176.307 848.578 175.501 848.578 174.584C848.578 173.667 848.77 172.867 849.154 172.184C849.549 171.501 850.082 170.979 850.754 170.616C851.437 170.253 852.205 170.072 853.058 170.072ZM853.058 171.656C852.589 171.656 852.157 171.763 851.762 171.976C851.367 172.189 851.047 172.52 850.802 172.968C850.567 173.405 850.45 173.944 850.45 174.584C850.45 175.235 850.567 175.779 850.802 176.216C851.047 176.653 851.367 176.979 851.762 177.192C852.157 177.405 852.589 177.512 853.058 177.512C853.527 177.512 853.959 177.405 854.354 177.192C854.749 176.979 855.063 176.653 855.298 176.216C855.543 175.779 855.666 175.235 855.666 174.584C855.666 173.944 855.543 173.405 855.298 172.968C855.063 172.52 854.749 172.189 854.354 171.976C853.959 171.763 853.527 171.656 853.058 171.656ZM860.732 176.984V179H858.668V176.984H860.732ZM866.258 170.072C867.4 170.072 868.344 170.376 869.09 170.984C869.837 171.581 870.301 172.397 870.482 173.432H868.546C868.44 172.877 868.178 172.445 867.762 172.136C867.357 171.816 866.845 171.656 866.226 171.656C865.522 171.656 864.936 171.907 864.466 172.408C863.997 172.899 863.762 173.624 863.762 174.584C863.762 175.544 863.997 176.275 864.466 176.776C864.936 177.277 865.522 177.528 866.226 177.528C866.845 177.528 867.357 177.368 867.762 177.048C868.178 176.728 868.44 176.291 868.546 175.736H870.482C870.301 176.771 869.837 177.592 869.09 178.2C868.344 178.808 867.4 179.112 866.258 179.112C865.405 179.112 864.648 178.931 863.986 178.568C863.336 178.205 862.824 177.683 862.45 177C862.077 176.317 861.89 175.512 861.89 174.584C861.89 173.667 862.077 172.867 862.45 172.184C862.824 171.501 863.336 170.979 863.986 170.616C864.648 170.253 865.405 170.072 866.258 170.072ZM876.277 170.072C877.13 170.072 877.898 170.253 878.581 170.616C879.263 170.979 879.797 171.501 880.181 172.184C880.565 172.867 880.757 173.667 880.757 174.584C880.757 175.512 880.565 176.317 880.181 177C879.797 177.683 879.263 178.205 878.581 178.568C877.898 178.931 877.13 179.112 876.277 179.112C875.423 179.112 874.655 178.931 873.973 178.568C873.301 178.205 872.767 177.683 872.373 177C871.989 176.307 871.797 175.501 871.797 174.584C871.797 173.667 871.989 172.867 872.373 172.184C872.767 171.501 873.301 170.979 873.973 170.616C874.655 170.253 875.423 170.072 876.277 170.072ZM876.277 171.656C875.807 171.656 875.375 171.763 874.981 171.976C874.586 172.189 874.266 172.52 874.021 172.968C873.786 173.405 873.669 173.944 873.669 174.584C873.669 175.235 873.786 175.779 874.021 176.216C874.266 176.653 874.586 176.979 874.981 177.192C875.375 177.405 875.807 177.512 876.277 177.512C876.746 177.512 877.178 177.405 877.573 177.192C877.967 176.979 878.282 176.653 878.517 176.216C878.762 175.779 878.885 175.235 878.885 174.584C878.885 173.944 878.762 173.405 878.517 172.968C878.282 172.52 877.967 172.189 877.573 171.976C877.178 171.763 876.746 171.656 876.277 171.656ZM893.534 170.04C894.58 170.04 895.412 170.371 896.03 171.032C896.66 171.693 896.974 172.637 896.974 173.864V179H895.15V174.056C895.15 173.288 894.958 172.696 894.574 172.28C894.19 171.853 893.662 171.64 892.99 171.64C892.276 171.64 891.705 171.869 891.278 172.328C890.862 172.776 890.654 173.437 890.654 174.312V179H888.83V174.056C888.83 173.288 888.638 172.696 888.254 172.28C887.87 171.853 887.342 171.64 886.67 171.64C885.956 171.64 885.385 171.869 884.958 172.328C884.542 172.776 884.334 173.437 884.334 174.312V179H882.51V170.184H884.334V172.024C884.558 171.384 884.932 170.893 885.454 170.552C885.977 170.211 886.59 170.04 887.294 170.04C888.03 170.04 888.665 170.221 889.198 170.584C889.742 170.947 890.137 171.469 890.382 172.152C890.638 171.491 891.049 170.973 891.614 170.6C892.18 170.227 892.82 170.04 893.534 170.04Z" fill="#232536"/>
<path d="M115.764 162.052C115.764 163.348 115.44 164.548 114.792 165.652C114.144 166.732 113.184 167.608 111.912 168.28C110.64 168.928 109.092 169.252 107.268 169.252C105.468 169.252 103.86 168.952 102.444 168.352C101.028 167.728 99.888 166.84 99.024 165.688C98.184 164.536 97.704 163.192 97.584 161.656H102.984C103.104 162.688 103.512 163.552 104.208 164.248C104.928 164.92 105.876 165.256 107.052 165.256C108.108 165.256 108.912 164.98 109.464 164.428C110.04 163.852 110.328 163.12 110.328 162.232C110.328 161.44 110.1 160.792 109.644 160.288C109.188 159.76 108.612 159.34 107.916 159.028C107.22 158.716 106.26 158.356 105.036 157.948C103.452 157.42 102.156 156.904 101.148 156.4C100.14 155.872 99.276 155.116 98.556 154.132C97.86 153.148 97.512 151.864 97.512 150.28C97.512 148.096 98.292 146.38 99.852 145.132C101.436 143.86 103.524 143.224 106.116 143.224C108.804 143.224 110.94 143.872 112.524 145.168C114.132 146.464 115.044 148.192 115.26 150.352H109.788C109.644 149.44 109.26 148.696 108.636 148.12C108.012 147.52 107.16 147.22 106.08 147.22C105.144 147.22 104.388 147.472 103.812 147.976C103.236 148.456 102.948 149.164 102.948 150.1C102.948 150.844 103.164 151.468 103.596 151.972C104.052 152.452 104.616 152.848 105.288 153.16C105.984 153.472 106.92 153.82 108.096 154.204C109.728 154.78 111.048 155.32 112.056 155.824C113.088 156.328 113.964 157.084 114.684 158.092C115.404 159.1 115.764 160.42 115.764 162.052ZM138.583 149.056V169H133.507V164.968C132.979 166.312 132.103 167.368 130.879 168.136C129.679 168.88 128.287 169.252 126.703 169.252C124.399 169.252 122.563 168.496 121.195 166.984C119.827 165.472 119.143 163.36 119.143 160.648V149.056H124.183V160.072C124.183 161.656 124.591 162.892 125.407 163.78C126.223 164.644 127.327 165.076 128.719 165.076C130.183 165.076 131.347 164.608 132.211 163.672C133.075 162.736 133.507 161.392 133.507 159.64V149.056H138.583ZM155.115 148.804C156.795 148.804 158.307 149.212 159.651 150.028C160.995 150.844 162.039 152.032 162.783 153.592C163.551 155.128 163.935 156.94 163.935 159.028C163.935 161.116 163.551 162.94 162.783 164.5C162.039 166.036 160.995 167.212 159.651 168.028C158.307 168.844 156.795 169.252 155.115 169.252C153.435 169.252 151.995 168.856 150.795 168.064C149.619 167.248 148.779 166.168 148.275 164.824V169H143.199V142.36H148.275V153.196C148.779 151.852 149.619 150.784 150.795 149.992C151.995 149.2 153.435 148.804 155.115 148.804ZM153.531 153.232C151.995 153.232 150.723 153.76 149.715 154.816C148.731 155.848 148.239 157.252 148.239 159.028C148.239 160.78 148.731 162.184 149.715 163.24C150.723 164.272 151.995 164.788 153.531 164.788C155.115 164.788 156.387 164.284 157.347 163.276C158.307 162.244 158.787 160.828 158.787 159.028C158.787 157.228 158.307 155.812 157.347 154.78C156.387 153.748 155.115 153.232 153.531 153.232ZM174.403 148.804C176.827 148.804 178.771 149.416 180.235 150.64C181.699 151.864 182.611 153.496 182.971 155.536H178.219C178.027 154.576 177.595 153.808 176.923 153.232C176.251 152.656 175.375 152.368 174.295 152.368C173.431 152.368 172.759 152.572 172.279 152.98C171.799 153.388 171.559 153.94 171.559 154.636C171.559 155.188 171.751 155.632 172.135 155.968C172.519 156.304 172.999 156.568 173.575 156.76C174.151 156.952 174.979 157.18 176.059 157.444C177.571 157.78 178.795 158.14 179.731 158.524C180.691 158.884 181.507 159.472 182.179 160.288C182.875 161.08 183.223 162.16 183.223 163.528C183.223 165.232 182.551 166.612 181.207 167.668C179.887 168.724 178.099 169.252 175.843 169.252C173.251 169.252 171.175 168.676 169.615 167.524C168.055 166.348 167.107 164.68 166.771 162.52H171.631C171.751 163.504 172.183 164.284 172.927 164.86C173.671 165.412 174.643 165.688 175.843 165.688C176.707 165.688 177.367 165.484 177.823 165.076C178.279 164.644 178.507 164.092 178.507 163.42C178.507 162.844 178.303 162.376 177.895 162.016C177.511 161.656 177.019 161.38 176.419 161.188C175.843 160.996 175.015 160.768 173.935 160.504C172.447 160.168 171.235 159.832 170.299 159.496C169.387 159.136 168.595 158.572 167.923 157.804C167.275 157.036 166.951 155.98 166.951 154.636C166.951 152.908 167.611 151.504 168.931 150.424C170.251 149.344 172.075 148.804 174.403 148.804ZM195.967 148.804C198.535 148.804 200.671 149.5 202.375 150.892C204.103 152.284 205.183 154.18 205.615 156.58H200.251C200.035 155.524 199.543 154.696 198.775 154.096C198.007 153.472 197.035 153.16 195.859 153.16C194.515 153.16 193.387 153.664 192.475 154.672C191.587 155.656 191.143 157.108 191.143 159.028C191.143 160.948 191.587 162.412 192.475 163.42C193.387 164.404 194.515 164.896 195.859 164.896C197.035 164.896 198.007 164.596 198.775 163.996C199.543 163.372 200.035 162.532 200.251 161.476H205.615C205.183 163.876 204.103 165.772 202.375 167.164C200.671 168.556 198.535 169.252 195.967 169.252C194.023 169.252 192.295 168.844 190.783 168.028C189.271 167.188 188.095 166 187.255 164.464C186.415 162.928 185.995 161.116 185.995 159.028C185.995 156.94 186.415 155.128 187.255 153.592C188.095 152.032 189.271 150.844 190.783 150.028C192.295 149.212 194.023 148.804 195.967 148.804ZM214.298 152.872C215.042 151.6 216.026 150.604 217.25 149.884C218.474 149.14 219.842 148.768 221.354 148.768V154.204H219.878C216.158 154.204 214.298 155.932 214.298 159.388V169H209.222V149.056H214.298V152.872ZM223.587 143.332C223.587 142.516 223.875 141.856 224.451 141.352C225.027 140.824 225.783 140.56 226.719 140.56C227.655 140.56 228.411 140.824 228.987 141.352C229.563 141.856 229.851 142.516 229.851 143.332C229.851 144.124 229.563 144.784 228.987 145.312C228.411 145.816 227.655 146.068 226.719 146.068C225.783 146.068 225.027 145.816 224.451 145.312C223.875 144.784 223.587 144.124 223.587 143.332ZM229.239 149.056V169H224.163V149.056H229.239ZM245.747 148.804C247.427 148.804 248.939 149.212 250.283 150.028C251.627 150.844 252.671 152.032 253.415 153.592C254.183 155.128 254.567 156.94 254.567 159.028C254.567 161.116 254.183 162.94 253.415 164.5C252.671 166.036 251.627 167.212 250.283 168.028C248.939 168.844 247.427 169.252 245.747 169.252C244.067 169.252 242.627 168.856 241.427 168.064C240.251 167.248 239.411 166.168 238.907 164.824V169H233.831V142.36H238.907V153.196C239.411 151.852 240.251 150.784 241.427 149.992C242.627 149.2 244.067 148.804 245.747 148.804ZM244.163 153.232C242.627 153.232 241.355 153.76 240.347 154.816C239.363 155.848 238.871 157.252 238.871 159.028C238.871 160.78 239.363 162.184 240.347 163.24C241.355 164.272 242.627 164.788 244.163 164.788C245.747 164.788 247.019 164.284 247.979 163.276C248.939 162.244 249.419 160.828 249.419 159.028C249.419 157.228 248.939 155.812 247.979 154.78C247.019 153.748 245.747 153.232 244.163 153.232ZM276.915 158.272C276.915 158.776 276.855 159.352 276.735 160H262.119C262.191 161.776 262.671 163.084 263.559 163.924C264.447 164.764 265.551 165.184 266.871 165.184C268.047 165.184 269.019 164.896 269.787 164.32C270.579 163.744 271.083 162.964 271.299 161.98H276.663C276.399 163.372 275.835 164.62 274.971 165.724C274.107 166.828 272.991 167.692 271.623 168.316C270.279 168.94 268.779 169.252 267.123 169.252C265.179 169.252 263.451 168.844 261.939 168.028C260.427 167.188 259.251 166 258.411 164.464C257.571 162.928 257.151 161.116 257.151 159.028C257.151 156.94 257.571 155.128 258.411 153.592C259.251 152.032 260.427 150.844 261.939 150.028C263.451 149.212 265.179 148.804 267.123 148.804C269.091 148.804 270.807 149.212 272.271 150.028C273.759 150.844 274.899 151.972 275.691 153.412C276.507 154.828 276.915 156.448 276.915 158.272ZM271.803 157.768C271.875 156.136 271.443 154.9 270.507 154.06C269.595 153.22 268.467 152.8 267.123 152.8C265.755 152.8 264.603 153.22 263.667 154.06C262.731 154.9 262.215 156.136 262.119 157.768H271.803ZM297.575 148.804C299.519 148.804 301.259 149.212 302.795 150.028C304.355 150.844 305.579 152.032 306.467 153.592C307.355 155.128 307.799 156.94 307.799 159.028C307.799 161.116 307.355 162.928 306.467 164.464C305.579 166 304.355 167.188 302.795 168.028C301.259 168.844 299.519 169.252 297.575 169.252C295.631 169.252 293.879 168.844 292.319 168.028C290.783 167.188 289.571 166 288.683 164.464C287.795 162.928 287.351 161.116 287.351 159.028C287.351 156.94 287.795 155.128 288.683 153.592C289.571 152.032 290.783 150.844 292.319 150.028C293.879 149.212 295.631 148.804 297.575 148.804ZM297.575 153.196C296.159 153.196 294.959 153.7 293.975 154.708C292.991 155.692 292.499 157.132 292.499 159.028C292.499 160.924 292.991 162.376 293.975 163.384C294.959 164.368 296.159 164.86 297.575 164.86C298.991 164.86 300.191 164.368 301.175 163.384C302.159 162.376 302.651 160.924 302.651 159.028C302.651 157.132 302.159 155.692 301.175 154.708C300.191 153.7 298.991 153.196 297.575 153.196ZM330.466 149.056V169H325.39V164.968C324.862 166.312 323.986 167.368 322.762 168.136C321.562 168.88 320.17 169.252 318.586 169.252C316.282 169.252 314.446 168.496 313.078 166.984C311.71 165.472 311.026 163.36 311.026 160.648V149.056H316.066V160.072C316.066 161.656 316.474 162.892 317.29 163.78C318.106 164.644 319.21 165.076 320.602 165.076C322.066 165.076 323.23 164.608 324.094 163.672C324.958 162.736 325.39 161.392 325.39 159.64V149.056H330.466ZM340.157 152.872C340.901 151.6 341.885 150.604 343.109 149.884C344.333 149.14 345.701 148.768 347.213 148.768V154.204H345.737C342.017 154.204 340.157 155.932 340.157 159.388V169H335.081V149.056H340.157V152.872ZM379.391 169H374.315L362.939 151.72V169H357.863V143.584H362.939L374.315 161.008V143.584H379.391V169ZM402.74 158.272C402.74 158.776 402.68 159.352 402.56 160H387.944C388.016 161.776 388.496 163.084 389.384 163.924C390.272 164.764 391.376 165.184 392.696 165.184C393.872 165.184 394.844 164.896 395.612 164.32C396.404 163.744 396.908 162.964 397.124 161.98H402.488C402.224 163.372 401.66 164.62 400.796 165.724C399.932 166.828 398.816 167.692 397.448 168.316C396.104 168.94 394.604 169.252 392.948 169.252C391.004 169.252 389.276 168.844 387.764 168.028C386.252 167.188 385.076 166 384.236 164.464C383.396 162.928 382.976 161.116 382.976 159.028C382.976 156.94 383.396 155.128 384.236 153.592C385.076 152.032 386.252 150.844 387.764 150.028C389.276 149.212 391.004 148.804 392.948 148.804C394.916 148.804 396.632 149.212 398.096 150.028C399.584 150.844 400.724 151.972 401.516 153.412C402.332 154.828 402.74 156.448 402.74 158.272ZM397.628 157.768C397.7 156.136 397.268 154.9 396.332 154.06C395.42 153.22 394.292 152.8 392.948 152.8C391.58 152.8 390.428 153.22 389.492 154.06C388.556 154.9 388.04 156.136 387.944 157.768H397.628ZM434.891 149.056L429.527 169H423.911L419.627 154.492L415.235 169H409.619L404.291 149.056H409.367L412.607 164.464L417.035 149.056H422.399L426.863 164.464L430.139 149.056H434.891ZM444.297 148.804C446.721 148.804 448.665 149.416 450.129 150.64C451.593 151.864 452.505 153.496 452.865 155.536H448.113C447.921 154.576 447.489 153.808 446.817 153.232C446.145 152.656 445.269 152.368 444.189 152.368C443.325 152.368 442.653 152.572 442.173 152.98C441.693 153.388 441.453 153.94 441.453 154.636C441.453 155.188 441.645 155.632 442.029 155.968C442.413 156.304 442.893 156.568 443.469 156.76C444.045 156.952 444.873 157.18 445.953 157.444C447.465 157.78 448.689 158.14 449.625 158.524C450.585 158.884 451.401 159.472 452.073 160.288C452.769 161.08 453.117 162.16 453.117 163.528C453.117 165.232 452.445 166.612 451.101 167.668C449.781 168.724 447.993 169.252 445.737 169.252C443.145 169.252 441.069 168.676 439.509 167.524C437.949 166.348 437.001 164.68 436.665 162.52H441.525C441.645 163.504 442.077 164.284 442.821 164.86C443.565 165.412 444.537 165.688 445.737 165.688C446.601 165.688 447.261 165.484 447.717 165.076C448.173 164.644 448.401 164.092 448.401 163.42C448.401 162.844 448.197 162.376 447.789 162.016C447.405 161.656 446.913 161.38 446.313 161.188C445.737 160.996 444.909 160.768 443.829 160.504C442.341 160.168 441.129 159.832 440.193 159.496C439.281 159.136 438.489 158.572 437.817 157.804C437.169 157.036 436.845 155.98 436.845 154.636C436.845 152.908 437.505 151.504 438.825 150.424C440.145 149.344 441.969 148.804 444.297 148.804ZM469.814 165.112H478.346V169H464.738V143.584H469.814V165.112ZM500.123 158.272C500.123 158.776 500.063 159.352 499.943 160H485.327C485.399 161.776 485.879 163.084 486.767 163.924C487.655 164.764 488.759 165.184 490.079 165.184C491.255 165.184 492.227 164.896 492.995 164.32C493.787 163.744 494.291 162.964 494.507 161.98H499.871C499.607 163.372 499.043 164.62 498.179 165.724C497.315 166.828 496.199 167.692 494.831 168.316C493.487 168.94 491.987 169.252 490.331 169.252C488.387 169.252 486.659 168.844 485.147 168.028C483.635 167.188 482.459 166 481.619 164.464C480.779 162.928 480.359 161.116 480.359 159.028C480.359 156.94 480.779 155.128 481.619 153.592C482.459 152.032 483.635 150.844 485.147 150.028C486.659 149.212 488.387 148.804 490.331 148.804C492.299 148.804 494.015 149.212 495.479 150.028C496.967 150.844 498.107 151.972 498.898 153.412C499.715 154.828 500.123 156.448 500.123 158.272ZM495.011 157.768C495.083 156.136 494.651 154.9 493.715 154.06C492.803 153.22 491.675 152.8 490.331 152.8C488.963 152.8 487.811 153.22 486.875 154.06C485.939 154.9 485.423 156.136 485.327 157.768H495.011ZM514.382 164.644V169H511.718C509.486 169 507.77 168.46 506.57 167.38C505.394 166.3 504.806 164.5 504.806 161.98V153.34H502.034V149.056H504.806V144.124H509.882V149.056H514.346V153.34H509.882V162.052C509.882 163.012 510.074 163.684 510.458 164.068C510.842 164.452 511.49 164.644 512.402 164.644H514.382ZM528.69 164.644V169H526.026C523.794 169 522.078 168.46 520.878 167.38C519.702 166.3 519.114 164.5 519.114 161.98V153.34H516.342V149.056H519.114V144.124H524.19V149.056H528.654V153.34H524.19V162.052C524.19 163.012 524.382 163.684 524.766 164.068C525.15 164.452 525.798 164.644 526.71 164.644H528.69ZM551.099 158.272C551.099 158.776 551.039 159.352 550.919 160H536.303C536.375 161.776 536.855 163.084 537.743 163.924C538.631 164.764 539.735 165.184 541.055 165.184C542.231 165.184 543.203 164.896 543.971 164.32C544.763 163.744 545.267 162.964 545.483 161.98H550.847C550.583 163.372 550.019 164.62 549.155 165.724C548.291 166.828 547.175 167.692 545.807 168.316C544.463 168.94 542.963 169.252 541.307 169.252C539.363 169.252 537.635 168.844 536.123 168.028C534.611 167.188 533.435 166 532.595 164.464C531.755 162.928 531.335 161.116 531.335 159.028C531.335 156.94 531.755 155.128 532.595 153.592C533.435 152.032 534.611 150.844 536.123 150.028C537.635 149.212 539.363 148.804 541.307 148.804C543.275 148.804 544.991 149.212 546.455 150.028C547.943 150.844 549.083 151.972 549.875 153.412C550.691 154.828 551.099 156.448 551.099 158.272ZM545.987 157.768C546.059 156.136 545.627 154.9 544.691 154.06C543.779 153.22 542.651 152.8 541.307 152.8C539.939 152.8 538.787 153.22 537.851 154.06C536.915 154.9 536.399 156.136 536.303 157.768H545.987ZM559.778 152.872C560.522 151.6 561.506 150.604 562.73 149.884C563.954 149.14 565.322 148.768 566.834 148.768V154.204H565.358C561.638 154.204 559.778 155.932 559.778 159.388V169H554.702V149.056H559.778V152.872ZM108.96 218.644V223H106.296C104.064 223 102.348 222.46 101.148 221.38C99.972 220.3 99.384 218.5 99.384 215.98V207.34H96.612V203.056H99.384V198.124H104.46V203.056H108.924V207.34H104.46V216.052C104.46 217.012 104.652 217.684 105.036 218.068C105.42 218.452 106.068 218.644 106.98 218.644H108.96ZM121.829 202.804C123.773 202.804 125.513 203.212 127.049 204.028C128.609 204.844 129.833 206.032 130.721 207.592C131.609 209.128 132.053 210.94 132.053 213.028C132.053 215.116 131.609 216.928 130.721 218.464C129.833 220 128.609 221.188 127.049 222.028C125.513 222.844 123.773 223.252 121.829 223.252C119.885 223.252 118.133 222.844 116.573 222.028C115.037 221.188 113.825 220 112.937 218.464C112.049 216.928 111.605 215.116 111.605 213.028C111.605 210.94 112.049 209.128 112.937 207.592C113.825 206.032 115.037 204.844 116.573 204.028C118.133 203.212 119.885 202.804 121.829 202.804ZM121.829 207.196C120.413 207.196 119.213 207.7 118.229 208.708C117.245 209.692 116.753 211.132 116.753 213.028C116.753 214.924 117.245 216.376 118.229 217.384C119.213 218.368 120.413 218.86 121.829 218.86C123.245 218.86 124.445 218.368 125.429 217.384C126.413 216.376 126.905 214.924 126.905 213.028C126.905 211.132 126.413 209.692 125.429 208.708C124.445 207.7 123.245 207.196 121.829 207.196ZM151.292 202.804C152.972 202.804 154.412 203.2 155.612 203.992C156.812 204.784 157.664 205.852 158.168 207.196V203.056H163.208V223.072C163.208 224.92 162.836 226.576 162.092 228.04C161.372 229.528 160.28 230.692 158.816 231.532C157.376 232.372 155.624 232.792 153.56 232.792C150.68 232.792 148.352 232.108 146.576 230.74C144.8 229.372 143.72 227.512 143.336 225.16H148.34C148.628 226.168 149.18 226.948 149.996 227.5C150.836 228.076 151.904 228.364 153.2 228.364C154.688 228.364 155.888 227.92 156.8 227.032C157.712 226.168 158.168 224.848 158.168 223.072V218.824C157.664 220.168 156.812 221.248 155.612 222.064C154.412 222.856 152.972 223.252 151.292 223.252C149.612 223.252 148.1 222.844 146.756 222.028C145.412 221.212 144.356 220.036 143.588 218.5C142.844 216.94 142.472 215.116 142.472 213.028C142.472 210.94 142.844 209.128 143.588 207.592C144.356 206.032 145.412 204.844 146.756 204.028C148.1 203.212 149.612 202.804 151.292 202.804ZM152.876 207.232C151.292 207.232 150.02 207.748 149.06 208.78C148.1 209.812 147.62 211.228 147.62 213.028C147.62 214.828 148.1 216.244 149.06 217.276C150.02 218.284 151.292 218.788 152.876 218.788C154.412 218.788 155.672 218.272 156.656 217.24C157.664 216.184 158.168 214.78 158.168 213.028C158.168 211.252 157.664 209.848 156.656 208.816C155.672 207.76 154.412 207.232 152.876 207.232ZM186.564 212.272C186.564 212.776 186.504 213.352 186.384 214H171.768C171.84 215.776 172.32 217.084 173.208 217.924C174.096 218.764 175.2 219.184 176.52 219.184C177.696 219.184 178.668 218.896 179.436 218.32C180.228 217.744 180.732 216.964 180.948 215.98H186.312C186.048 217.372 185.484 218.62 184.62 219.724C183.756 220.828 182.64 221.692 181.272 222.316C179.928 222.94 178.428 223.252 176.772 223.252C174.828 223.252 173.1 222.844 171.588 222.028C170.076 221.188 168.9 220 168.06 218.464C167.22 216.928 166.8 215.116 166.8 213.028C166.8 210.94 167.22 209.128 168.06 207.592C168.9 206.032 170.076 204.844 171.588 204.028C173.1 203.212 174.828 202.804 176.772 202.804C178.74 202.804 180.456 203.212 181.92 204.028C183.408 204.844 184.548 205.972 185.34 207.412C186.156 208.828 186.564 210.448 186.564 212.272ZM181.452 211.768C181.524 210.136 181.092 208.9 180.156 208.06C179.244 207.22 178.116 206.8 176.772 206.8C175.404 206.8 174.252 207.22 173.316 208.06C172.38 208.9 171.864 210.136 171.768 211.768H181.452ZM200.823 218.644V223H198.159C195.927 223 194.211 222.46 193.011 221.38C191.835 220.3 191.247 218.5 191.247 215.98V207.34H188.475V203.056H191.247V198.124H196.323V203.056H200.787V207.34H196.323V216.052C196.323 217.012 196.515 217.684 196.899 218.068C197.283 218.452 197.931 218.644 198.843 218.644H200.823ZM217.392 219.112H225.924V223H212.316V197.584H217.392V219.112ZM236.757 202.804C238.437 202.804 239.877 203.2 241.077 203.992C242.277 204.784 243.129 205.852 243.633 207.196V203.056H248.673V223H243.633V218.824C243.129 220.168 242.277 221.248 241.077 222.064C239.877 222.856 238.437 223.252 236.757 223.252C235.077 223.252 233.565 222.844 232.221 222.028C230.877 221.212 229.821 220.036 229.053 218.5C228.309 216.94 227.937 215.116 227.937 213.028C227.937 210.94 228.309 209.128 229.053 207.592C229.821 206.032 230.877 204.844 232.221 204.028C233.565 203.212 235.077 202.804 236.757 202.804ZM238.341 207.232C236.757 207.232 235.485 207.748 234.525 208.78C233.565 209.812 233.085 211.228 233.085 213.028C233.085 214.828 233.565 216.244 234.525 217.276C235.485 218.284 236.757 218.788 238.341 218.788C239.877 218.788 241.137 218.272 242.121 217.24C243.129 216.184 243.633 214.78 243.633 213.028C243.633 211.252 243.129 209.848 242.121 208.816C241.137 207.76 239.877 207.232 238.341 207.232ZM263.929 218.644V223H261.265C259.033 223 257.317 222.46 256.117 221.38C254.941 220.3 254.353 218.5 254.353 215.98V207.34H251.581V203.056H254.353V198.124H259.429V203.056H263.893V207.34H259.429V216.052C259.429 217.012 259.621 217.684 260.005 218.068C260.389 218.452 261.037 218.644 261.949 218.644H263.929ZM286.337 212.272C286.337 212.776 286.277 213.352 286.157 214H271.541C271.613 215.776 272.093 217.084 272.981 217.924C273.869 218.764 274.973 219.184 276.293 219.184C277.469 219.184 278.441 218.896 279.209 218.32C280.001 217.744 280.505 216.964 280.721 215.98H286.085C285.821 217.372 285.257 218.62 284.393 219.724C283.529 220.828 282.413 221.692 281.045 222.316C279.701 222.94 278.201 223.252 276.545 223.252C274.601 223.252 272.873 222.844 271.361 222.028C269.849 221.188 268.673 220 267.833 218.464C266.993 216.928 266.573 215.116 266.573 213.028C266.573 210.94 266.993 209.128 267.833 207.592C268.673 206.032 269.849 204.844 271.361 204.028C272.873 203.212 274.601 202.804 276.545 202.804C278.513 202.804 280.229 203.212 281.693 204.028C283.181 204.844 284.321 205.972 285.113 207.412C285.929 208.828 286.337 210.448 286.337 212.272ZM281.225 211.768C281.297 210.136 280.865 208.9 279.929 208.06C279.017 207.22 277.889 206.8 276.545 206.8C275.177 206.8 274.025 207.22 273.089 208.06C272.153 208.9 271.637 210.136 271.541 211.768H281.225ZM296.817 202.804C299.241 202.804 301.185 203.416 302.649 204.64C304.113 205.864 305.025 207.496 305.385 209.536H300.633C300.441 208.576 300.009 207.808 299.337 207.232C298.665 206.656 297.789 206.368 296.709 206.368C295.845 206.368 295.173 206.572 294.693 206.98C294.213 207.388 293.973 207.94 293.973 208.636C293.973 209.188 294.165 209.632 294.549 209.968C294.933 210.304 295.413 210.568 295.989 210.76C296.565 210.952 297.393 211.18 298.473 211.444C299.985 211.78 301.209 212.14 302.145 212.524C303.105 212.884 303.921 213.472 304.593 214.288C305.289 215.08 305.637 216.16 305.637 217.528C305.637 219.232 304.965 220.612 303.621 221.668C302.301 222.724 300.513 223.252 298.257 223.252C295.665 223.252 293.589 222.676 292.029 221.524C290.469 220.348 289.521 218.68 289.185 216.52H294.045C294.165 217.504 294.597 218.284 295.341 218.86C296.085 219.412 297.057 219.688 298.257 219.688C299.121 219.688 299.781 219.484 300.237 219.076C300.693 218.644 300.921 218.092 300.921 217.42C300.921 216.844 300.717 216.376 300.309 216.016C299.925 215.656 299.433 215.38 298.833 215.188C298.257 214.996 297.429 214.768 296.349 214.504C294.861 214.168 293.649 213.832 292.713 213.496C291.801 213.136 291.009 212.572 290.337 211.804C289.689 211.036 289.365 209.98 289.365 208.636C289.365 206.908 290.025 205.504 291.345 204.424C292.665 203.344 294.489 202.804 296.817 202.804ZM320.073 218.644V223H317.409C315.177 223 313.461 222.46 312.261 221.38C311.085 220.3 310.497 218.5 310.497 215.98V207.34H307.725V203.056H310.497V198.124H315.573V203.056H320.037V207.34H315.573V216.052C315.573 217.012 315.765 217.684 316.149 218.068C316.533 218.452 317.181 218.644 318.093 218.644H320.073ZM336.462 197.584V212.488C336.462 214.48 336.894 215.98 337.758 216.988C338.646 217.972 339.918 218.464 341.574 218.464C343.206 218.464 344.454 217.972 345.318 216.988C346.206 215.98 346.65 214.48 346.65 212.488V197.584H351.69V212.488C351.69 214.84 351.246 216.832 350.358 218.464C349.494 220.072 348.282 221.272 346.722 222.064C345.186 222.856 343.434 223.252 341.466 223.252C338.418 223.252 335.982 222.34 334.158 220.516C332.334 218.692 331.422 216.016 331.422 212.488V197.584H336.462ZM368.056 202.804C369.736 202.804 371.248 203.212 372.592 204.028C373.936 204.844 374.98 206.032 375.724 207.592C376.492 209.128 376.876 210.94 376.876 213.028C376.876 215.116 376.492 216.94 375.724 218.5C374.98 220.036 373.936 221.212 372.592 222.028C371.248 222.844 369.736 223.252 368.056 223.252C366.376 223.252 364.936 222.856 363.736 222.064C362.56 221.248 361.72 220.168 361.216 218.824V232.504H356.14V203.056H361.216V207.196C361.72 205.852 362.56 204.784 363.736 203.992C364.936 203.2 366.376 202.804 368.056 202.804ZM366.472 207.232C364.936 207.232 363.664 207.76 362.656 208.816C361.672 209.848 361.18 211.252 361.18 213.028C361.18 214.78 361.672 216.184 362.656 217.24C363.664 218.272 364.936 218.788 366.472 218.788C368.056 218.788 369.328 218.284 370.288 217.276C371.248 216.244 371.728 214.828 371.728 213.028C371.728 211.228 371.248 209.812 370.288 208.78C369.328 207.748 368.056 207.232 366.472 207.232ZM388.28 202.804C389.96 202.804 391.388 203.2 392.564 203.992C393.764 204.784 394.628 205.852 395.156 207.196V196.36H400.196V223H395.156V218.824C394.628 220.168 393.764 221.248 392.564 222.064C391.388 222.856 389.96 223.252 388.28 223.252C386.6 223.252 385.088 222.844 383.744 222.028C382.4 221.212 381.344 220.036 380.576 218.5C379.832 216.94 379.46 215.116 379.46 213.028C379.46 210.94 379.832 209.128 380.576 207.592C381.344 206.032 382.4 204.844 383.744 204.028C385.088 203.212 386.6 202.804 388.28 202.804ZM389.864 207.232C388.28 207.232 387.008 207.748 386.048 208.78C385.088 209.812 384.608 211.228 384.608 213.028C384.608 214.828 385.088 216.244 386.048 217.276C387.008 218.284 388.28 218.788 389.864 218.788C391.4 218.788 392.66 218.272 393.644 217.24C394.652 216.184 395.156 214.78 395.156 213.028C395.156 211.252 394.652 209.848 393.644 208.816C392.66 207.76 391.4 207.232 389.864 207.232ZM412.608 202.804C414.288 202.804 415.728 203.2 416.928 203.992C418.128 204.784 418.98 205.852 419.484 207.196V203.056H424.524V223H419.484V218.824C418.98 220.168 418.128 221.248 416.928 222.064C415.728 222.856 414.288 223.252 412.608 223.252C410.928 223.252 409.416 222.844 408.072 222.028C406.728 221.212 405.672 220.036 404.904 218.5C404.16 216.94 403.788 215.116 403.788 213.028C403.788 210.94 404.16 209.128 404.904 207.592C405.672 206.032 406.728 204.844 408.072 204.028C409.416 203.212 410.928 202.804 412.608 202.804ZM414.192 207.232C412.608 207.232 411.336 207.748 410.376 208.78C409.416 209.812 408.936 211.228 408.936 213.028C408.936 214.828 409.416 216.244 410.376 217.276C411.336 218.284 412.608 218.788 414.192 218.788C415.728 218.788 416.988 218.272 417.972 217.24C418.98 216.184 419.484 214.78 419.484 213.028C419.484 211.252 418.98 209.848 417.972 208.816C416.988 207.76 415.728 207.232 414.192 207.232ZM439.78 218.644V223H437.116C434.884 223 433.168 222.46 431.968 221.38C430.792 220.3 430.204 218.5 430.204 215.98V207.34H427.432V203.056H430.204V198.124H435.28V203.056H439.744V207.34H435.28V216.052C435.28 217.012 435.472 217.684 435.856 218.068C436.24 218.452 436.888 218.644 437.8 218.644H439.78ZM462.189 212.272C462.189 212.776 462.129 213.352 462.009 214H447.393C447.465 215.776 447.945 217.084 448.833 217.924C449.721 218.764 450.825 219.184 452.145 219.184C453.321 219.184 454.293 218.896 455.061 218.32C455.853 217.744 456.357 216.964 456.573 215.98H461.937C461.673 217.372 461.109 218.62 460.245 219.724C459.381 220.828 458.265 221.692 456.897 222.316C455.553 222.94 454.053 223.252 452.397 223.252C450.453 223.252 448.725 222.844 447.213 222.028C445.701 221.188 444.525 220 443.685 218.464C442.845 216.928 442.425 215.116 442.425 213.028C442.425 210.94 442.845 209.128 443.685 207.592C444.525 206.032 445.701 204.844 447.213 204.028C448.725 203.212 450.453 202.804 452.397 202.804C454.365 202.804 456.081 203.212 457.545 204.028C459.033 204.844 460.173 205.972 460.965 207.412C461.781 208.828 462.189 210.448 462.189 212.272ZM457.077 211.768C457.149 210.136 456.717 208.9 455.781 208.06C454.869 207.22 453.741 206.8 452.397 206.8C451.029 206.8 449.877 207.22 448.941 208.06C448.005 208.9 447.489 210.136 447.393 211.768H457.077ZM472.668 202.804C475.092 202.804 477.036 203.416 478.5 204.64C479.964 205.864 480.876 207.496 481.236 209.536H476.484C476.292 208.576 475.86 207.808 475.188 207.232C474.516 206.656 473.64 206.368 472.56 206.368C471.696 206.368 471.024 206.572 470.544 206.98C470.064 207.388 469.824 207.94 469.824 208.636C469.824 209.188 470.016 209.632 470.4 209.968C470.784 210.304 471.264 210.568 471.84 210.76C472.416 210.952 473.244 211.18 474.324 211.444C475.836 211.78 477.06 212.14 477.996 212.524C478.956 212.884 479.772 213.472 480.444 214.288C481.14 215.08 481.488 216.16 481.488 217.528C481.488 219.232 480.816 220.612 479.472 221.668C478.152 222.724 476.364 223.252 474.108 223.252C471.516 223.252 469.44 222.676 467.88 221.524C466.32 220.348 465.372 218.68 465.036 216.52H469.896C470.016 217.504 470.448 218.284 471.192 218.86C471.936 219.412 472.908 219.688 474.108 219.688C474.972 219.688 475.632 219.484 476.088 219.076C476.544 218.644 476.772 218.092 476.772 217.42C476.772 216.844 476.568 216.376 476.16 216.016C475.776 215.656 475.284 215.38 474.684 215.188C474.108 214.996 473.28 214.768 472.2 214.504C470.712 214.168 469.5 213.832 468.564 213.496C467.652 213.136 466.86 212.572 466.188 211.804C465.54 211.036 465.216 209.98 465.216 208.636C465.216 206.908 465.876 205.504 467.196 204.424C468.516 203.344 470.34 202.804 472.668 202.804ZM489.481 217.708V223H484.009V217.708H489.481Z" fill="white"/>
<path d="M106.96 111H105.364L100.562 103.706V111H98.966V101.13H100.562L105.364 108.452V101.13H106.96V111ZM113.488 102.404V105.4H117.128V106.632H113.488V109.698H117.548V111H111.892V101.116H117.548V102.404H113.488ZM134.613 101.116L132.149 111H130.189L128.103 103.356L126.017 111H124.057L121.593 101.116H123.343L125.051 109.152L127.221 101.116H128.985L131.155 109.152L132.863 101.116H134.613ZM145.538 108.368C145.538 108.853 145.422 109.306 145.188 109.726C144.955 110.137 144.6 110.468 144.124 110.72C143.648 110.972 143.065 111.098 142.374 111.098C141.702 111.098 141.1 110.981 140.568 110.748C140.036 110.505 139.612 110.169 139.294 109.74C138.977 109.311 138.795 108.816 138.748 108.256H140.456C140.503 108.685 140.685 109.054 141.002 109.362C141.329 109.67 141.763 109.824 142.304 109.824C142.79 109.824 143.163 109.693 143.424 109.432C143.695 109.171 143.83 108.835 143.83 108.424C143.83 108.069 143.732 107.78 143.536 107.556C143.34 107.323 143.098 107.141 142.808 107.01C142.519 106.879 142.122 106.73 141.618 106.562C141.002 106.366 140.498 106.17 140.106 105.974C139.724 105.778 139.397 105.493 139.126 105.12C138.856 104.747 138.72 104.257 138.72 103.65C138.72 103.118 138.851 102.651 139.112 102.25C139.374 101.849 139.747 101.541 140.232 101.326C140.718 101.102 141.278 100.99 141.912 100.99C142.92 100.99 143.718 101.233 144.306 101.718C144.904 102.203 145.244 102.838 145.328 103.622H143.606C143.541 103.249 143.364 102.931 143.074 102.67C142.794 102.399 142.407 102.264 141.912 102.264C141.464 102.264 141.105 102.381 140.834 102.614C140.564 102.838 140.428 103.165 140.428 103.594C140.428 103.93 140.522 104.21 140.708 104.434C140.895 104.649 141.128 104.821 141.408 104.952C141.698 105.073 142.09 105.218 142.584 105.386C143.21 105.582 143.718 105.783 144.11 105.988C144.512 106.184 144.848 106.473 145.118 106.856C145.398 107.239 145.538 107.743 145.538 108.368ZM151.732 109.754H155.148V111H150.136V101.116H151.732V109.754ZM160.994 102.404V105.4H164.634V106.632H160.994V109.698H165.054V111H159.398V101.116H165.054V102.404H160.994ZM175.959 101.116V102.404H173.201V111H171.591V102.404H168.847V101.116H175.959ZM186.506 101.116V102.404H183.748V111H182.138V102.404H179.394V101.116H186.506ZM192.292 102.404V105.4H195.932V106.632H192.292V109.698H196.352V111H190.696V101.116H196.352V102.404H192.292ZM206.096 111L203.632 107.052H202.498V111H200.902V101.116H204.388C205.517 101.116 206.371 101.391 206.95 101.942C207.538 102.493 207.832 103.221 207.832 104.126C207.832 104.901 207.612 105.535 207.174 106.03C206.744 106.525 206.119 106.842 205.298 106.982L207.888 111H206.096ZM202.498 105.918H204.262C205.55 105.918 206.194 105.349 206.194 104.21C206.194 103.669 206.035 103.249 205.718 102.95C205.41 102.642 204.924 102.488 204.262 102.488H202.498V105.918Z" fill="white"/>
</svg>
