<svg width="624" height="368" viewBox="0 0 624 368" fill="none" xmlns="http://www.w3.org/2000/svg">
<rect width="624" height="368" fill="#FFD3AF" fill-opacity="0.57"/>
<path opacity="0.87" d="M313.28 270.496V273.424H317.28V275.152H313.28V278.192H317.76V280H311.024V268.704H317.76V270.496H313.28ZM324.822 280L322.806 277.152L321.11 280H318.63L321.558 275.376L318.566 271.136H321.094L323.062 273.936L324.758 271.136H327.238L324.262 275.632L327.35 280H324.822ZM333.804 271.024C334.551 271.024 335.223 271.205 335.82 271.568C336.418 271.931 336.882 272.459 337.212 273.152C337.554 273.835 337.724 274.64 337.724 275.568C337.724 276.496 337.554 277.307 337.212 278C336.882 278.683 336.418 279.205 335.82 279.568C335.223 279.931 334.551 280.112 333.804 280.112C333.058 280.112 332.418 279.936 331.884 279.584C331.362 279.221 330.988 278.741 330.764 278.144V284.224H328.508V271.136H330.764V272.976C330.988 272.379 331.362 271.904 331.884 271.552C332.418 271.2 333.058 271.024 333.804 271.024ZM333.1 272.992C332.418 272.992 331.852 273.227 331.404 273.696C330.967 274.155 330.748 274.779 330.748 275.568C330.748 276.347 330.967 276.971 331.404 277.44C331.852 277.899 332.418 278.128 333.1 278.128C333.804 278.128 334.37 277.904 334.796 277.456C335.223 276.997 335.436 276.368 335.436 275.568C335.436 274.768 335.223 274.139 334.796 273.68C334.37 273.221 333.804 272.992 333.1 272.992ZM347.657 275.232C347.657 275.456 347.63 275.712 347.577 276H341.081C341.113 276.789 341.326 277.371 341.721 277.744C342.116 278.117 342.606 278.304 343.193 278.304C343.716 278.304 344.148 278.176 344.489 277.92C344.841 277.664 345.065 277.317 345.161 276.88H347.545C347.428 277.499 347.177 278.053 346.793 278.544C346.409 279.035 345.913 279.419 345.305 279.696C344.708 279.973 344.041 280.112 343.305 280.112C342.441 280.112 341.673 279.931 341.001 279.568C340.329 279.195 339.806 278.667 339.433 277.984C339.06 277.301 338.873 276.496 338.873 275.568C338.873 274.64 339.06 273.835 339.433 273.152C339.806 272.459 340.329 271.931 341.001 271.568C341.673 271.205 342.441 271.024 343.305 271.024C344.18 271.024 344.942 271.205 345.593 271.568C346.254 271.931 346.761 272.432 347.113 273.072C347.476 273.701 347.657 274.421 347.657 275.232ZM345.385 275.008C345.417 274.283 345.225 273.733 344.809 273.36C344.404 272.987 343.902 272.8 343.305 272.8C342.697 272.8 342.185 272.987 341.769 273.36C341.353 273.733 341.124 274.283 341.081 275.008H345.385ZM351.514 272.832C351.845 272.267 352.282 271.824 352.826 271.504C353.37 271.173 353.978 271.008 354.65 271.008V273.424H353.994C352.341 273.424 351.514 274.192 351.514 275.728V280H349.258V271.136H351.514V272.832ZM355.643 268.592C355.643 268.229 355.771 267.936 356.027 267.712C356.283 267.477 356.619 267.36 357.035 267.36C357.451 267.36 357.787 267.477 358.043 267.712C358.299 267.936 358.427 268.229 358.427 268.592C358.427 268.944 358.299 269.237 358.043 269.472C357.787 269.696 357.451 269.808 357.035 269.808C356.619 269.808 356.283 269.696 356.027 269.472C355.771 269.237 355.643 268.944 355.643 268.592ZM358.155 271.136V280H355.899V271.136H358.155ZM368.532 275.232C368.532 275.456 368.505 275.712 368.452 276H361.956C361.988 276.789 362.201 277.371 362.596 277.744C362.991 278.117 363.481 278.304 364.068 278.304C364.591 278.304 365.023 278.176 365.364 277.92C365.716 277.664 365.94 277.317 366.036 276.88H368.42C368.303 277.499 368.052 278.053 367.668 278.544C367.284 279.035 366.788 279.419 366.18 279.696C365.583 279.973 364.916 280.112 364.18 280.112C363.316 280.112 362.548 279.931 361.876 279.568C361.204 279.195 360.681 278.667 360.308 277.984C359.935 277.301 359.748 276.496 359.748 275.568C359.748 274.64 359.935 273.835 360.308 273.152C360.681 272.459 361.204 271.931 361.876 271.568C362.548 271.205 363.316 271.024 364.18 271.024C365.055 271.024 365.817 271.205 366.468 271.568C367.129 271.931 367.636 272.432 367.988 273.072C368.351 273.701 368.532 274.421 368.532 275.232ZM366.26 275.008C366.292 274.283 366.1 273.733 365.684 273.36C365.279 272.987 364.777 272.8 364.18 272.8C363.572 272.8 363.06 272.987 362.644 273.36C362.228 273.733 361.999 274.283 361.956 275.008H366.26ZM375.413 271.008C376.437 271.008 377.253 271.344 377.861 272.016C378.469 272.688 378.773 273.632 378.773 274.848V280H376.533V275.104C376.533 274.4 376.352 273.856 375.989 273.472C375.627 273.077 375.131 272.88 374.501 272.88C373.861 272.88 373.349 273.088 372.965 273.504C372.581 273.92 372.389 274.517 372.389 275.296V280H370.133V271.136H372.389V272.912C372.624 272.315 373.008 271.851 373.541 271.52C374.085 271.179 374.709 271.008 375.413 271.008ZM384.742 271.024C385.884 271.024 386.833 271.333 387.59 271.952C388.358 272.571 388.838 273.413 389.03 274.48H386.646C386.55 274.011 386.332 273.643 385.99 273.376C385.649 273.099 385.217 272.96 384.694 272.96C384.097 272.96 383.596 273.184 383.19 273.632C382.796 274.069 382.598 274.715 382.598 275.568C382.598 276.421 382.796 277.072 383.19 277.52C383.596 277.957 384.097 278.176 384.694 278.176C385.217 278.176 385.649 278.043 385.99 277.776C386.332 277.499 386.55 277.125 386.646 276.656H389.03C388.838 277.723 388.358 278.565 387.59 279.184C386.833 279.803 385.884 280.112 384.742 280.112C383.878 280.112 383.11 279.931 382.438 279.568C381.766 279.195 381.244 278.667 380.87 277.984C380.497 277.301 380.31 276.496 380.31 275.568C380.31 274.64 380.497 273.835 380.87 273.152C381.244 272.459 381.766 271.931 382.438 271.568C383.11 271.205 383.878 271.024 384.742 271.024ZM398.969 275.232C398.969 275.456 398.943 275.712 398.889 276H392.393C392.425 276.789 392.639 277.371 393.033 277.744C393.428 278.117 393.919 278.304 394.505 278.304C395.028 278.304 395.46 278.176 395.801 277.92C396.153 277.664 396.377 277.317 396.473 276.88H398.857C398.74 277.499 398.489 278.053 398.105 278.544C397.721 279.035 397.225 279.419 396.617 279.696C396.02 279.973 395.353 280.112 394.617 280.112C393.753 280.112 392.985 279.931 392.313 279.568C391.641 279.195 391.119 278.667 390.745 277.984C390.372 277.301 390.185 276.496 390.185 275.568C390.185 274.64 390.372 273.835 390.745 273.152C391.119 272.459 391.641 271.931 392.313 271.568C392.985 271.205 393.753 271.024 394.617 271.024C395.492 271.024 396.255 271.205 396.905 271.568C397.567 271.931 398.073 272.432 398.425 273.072C398.788 273.701 398.969 274.421 398.969 275.232ZM396.697 275.008C396.729 274.283 396.537 273.733 396.121 273.36C395.716 272.987 395.215 272.8 394.617 272.8C394.009 272.8 393.497 272.987 393.081 273.36C392.665 273.733 392.436 274.283 392.393 275.008H396.697Z" fill="#232536"/>
<rect x="310" y="252" width="71.9999" height="6.00003" fill="#444CFC"/>
<rect x="320.402" y="252" width="61.5953" height="6.00003" fill="#FFA155"/>
<rect x="320.05" y="252" width="44.6449" height="5.99069" fill="#FFD3AF"/>
<path d="M310.432 209.336V204.584H319.576V230H314.248V209.336H310.432ZM323.575 217.076C323.575 225.692 326.815 230 333.295 230C336.727 230 339.199 228.848 340.711 226.544C342.223 224.24 342.979 221.084 342.979 217.076C342.979 213.092 342.223 209.948 340.711 207.644C339.199 205.34 336.727 204.188 333.295 204.188C326.815 204.188 323.575 208.484 323.575 217.076ZM337.975 217.076C337.975 219.692 337.651 221.708 337.003 223.124C336.379 224.516 335.143 225.212 333.295 225.212C331.423 225.212 330.163 224.516 329.515 223.124C328.891 221.708 328.579 219.692 328.579 217.076C328.579 214.484 328.891 212.492 329.515 211.1C330.163 209.684 331.423 208.976 333.295 208.976C335.143 208.976 336.379 209.684 337.003 211.1C337.651 212.492 337.975 214.484 337.975 217.076ZM358.193 210.056L363.629 223.592L368.669 210.056H374.249L362.045 239.504H356.429L360.929 229.424L352.541 210.056H358.193ZM381.716 213.872C382.46 212.6 383.444 211.604 384.668 210.884C385.892 210.14 387.26 209.768 388.772 209.768V215.204H387.296C383.576 215.204 381.716 216.932 381.716 220.388V230H376.64V210.056H381.716V213.872ZM398.457 209.804C400.881 209.804 402.825 210.416 404.289 211.64C405.753 212.864 406.665 214.496 407.025 216.536H402.273C402.081 215.576 401.649 214.808 400.977 214.232C400.305 213.656 399.429 213.368 398.349 213.368C397.485 213.368 396.813 213.572 396.333 213.98C395.853 214.388 395.613 214.94 395.613 215.636C395.613 216.188 395.805 216.632 396.189 216.968C396.573 217.304 397.053 217.568 397.629 217.76C398.205 217.952 399.033 218.18 400.113 218.444C401.625 218.78 402.849 219.14 403.785 219.524C404.745 219.884 405.561 220.472 406.233 221.288C406.929 222.08 407.277 223.16 407.277 224.528C407.277 226.232 406.605 227.612 405.261 228.668C403.941 229.724 402.153 230.252 399.897 230.252C397.305 230.252 395.229 229.676 393.669 228.524C392.109 227.348 391.161 225.68 390.825 223.52H395.685C395.805 224.504 396.237 225.284 396.981 225.86C397.725 226.412 398.697 226.688 399.897 226.688C400.761 226.688 401.421 226.484 401.877 226.076C402.333 225.644 402.561 225.092 402.561 224.42C402.561 223.844 402.357 223.376 401.949 223.016C401.565 222.656 401.073 222.38 400.473 222.188C399.897 221.996 399.069 221.768 397.989 221.504C396.501 221.168 395.289 220.832 394.353 220.496C393.441 220.136 392.649 219.572 391.977 218.804C391.329 218.036 391.005 216.98 391.005 215.636C391.005 213.908 391.665 212.504 392.985 211.424C394.305 210.344 396.129 209.804 398.457 209.804Z" fill="#232536"/>
<path opacity="0.87" d="M120.384 268.704V280H118.112V275.088H113.28V280H111.024V268.704H113.28V273.28H118.112V268.704H120.384ZM125.902 271.024C126.649 271.024 127.289 271.2 127.822 271.552C128.356 271.904 128.734 272.379 128.958 272.976V271.136H131.198V280H128.958V278.144C128.734 278.741 128.356 279.221 127.822 279.584C127.289 279.936 126.649 280.112 125.902 280.112C125.156 280.112 124.484 279.931 123.886 279.568C123.289 279.205 122.82 278.683 122.478 278C122.148 277.307 121.982 276.496 121.982 275.568C121.982 274.64 122.148 273.835 122.478 273.152C122.82 272.459 123.289 271.931 123.886 271.568C124.484 271.205 125.156 271.024 125.902 271.024ZM126.606 272.992C125.902 272.992 125.337 273.221 124.91 273.68C124.484 274.139 124.27 274.768 124.27 275.568C124.27 276.368 124.484 276.997 124.91 277.456C125.337 277.904 125.902 278.128 126.606 278.128C127.289 278.128 127.849 277.899 128.286 277.44C128.734 276.971 128.958 276.347 128.958 275.568C128.958 274.779 128.734 274.155 128.286 273.696C127.849 273.227 127.289 272.992 126.606 272.992ZM138.539 271.024C139.285 271.024 139.957 271.205 140.555 271.568C141.152 271.931 141.616 272.459 141.947 273.152C142.288 273.835 142.459 274.64 142.459 275.568C142.459 276.496 142.288 277.307 141.947 278C141.616 278.683 141.152 279.205 140.555 279.568C139.957 279.931 139.285 280.112 138.539 280.112C137.792 280.112 137.152 279.936 136.619 279.584C136.096 279.221 135.723 278.741 135.499 278.144V284.224H133.243V271.136H135.499V272.976C135.723 272.379 136.096 271.904 136.619 271.552C137.152 271.2 137.792 271.024 138.539 271.024ZM137.835 272.992C137.152 272.992 136.587 273.227 136.139 273.696C135.701 274.155 135.483 274.779 135.483 275.568C135.483 276.347 135.701 276.971 136.139 277.44C136.587 277.899 137.152 278.128 137.835 278.128C138.539 278.128 139.104 277.904 139.531 277.456C139.957 276.997 140.171 276.368 140.171 275.568C140.171 274.768 139.957 274.139 139.531 273.68C139.104 273.221 138.539 272.992 137.835 272.992ZM149.351 271.024C150.098 271.024 150.77 271.205 151.367 271.568C151.965 271.931 152.429 272.459 152.759 273.152C153.101 273.835 153.271 274.64 153.271 275.568C153.271 276.496 153.101 277.307 152.759 278C152.429 278.683 151.965 279.205 151.367 279.568C150.77 279.931 150.098 280.112 149.351 280.112C148.605 280.112 147.965 279.936 147.431 279.584C146.909 279.221 146.535 278.741 146.311 278.144V284.224H144.055V271.136H146.311V272.976C146.535 272.379 146.909 271.904 147.431 271.552C147.965 271.2 148.605 271.024 149.351 271.024ZM148.647 272.992C147.965 272.992 147.399 273.227 146.951 273.696C146.514 274.155 146.295 274.779 146.295 275.568C146.295 276.347 146.514 276.971 146.951 277.44C147.399 277.899 147.965 278.128 148.647 278.128C149.351 278.128 149.917 277.904 150.343 277.456C150.77 276.997 150.983 276.368 150.983 275.568C150.983 274.768 150.77 274.139 150.343 273.68C149.917 273.221 149.351 272.992 148.647 272.992ZM156.388 271.136L158.804 277.152L161.044 271.136H163.524L158.1 284.224H155.604L157.604 279.744L153.876 271.136H156.388ZM173.175 268.592C174.583 268.592 175.751 268.955 176.679 269.68C177.607 270.405 178.22 271.392 178.519 272.64H176.151C175.906 272.032 175.522 271.552 174.999 271.2C174.487 270.848 173.868 270.672 173.143 270.672C172.546 270.672 172.007 270.821 171.527 271.12C171.047 271.419 170.674 271.845 170.407 272.4C170.14 272.955 170.007 273.605 170.007 274.352C170.007 275.088 170.14 275.733 170.407 276.288C170.674 276.843 171.047 277.269 171.527 277.568C172.007 277.867 172.546 278.016 173.143 278.016C173.868 278.016 174.487 277.84 174.999 277.488C175.522 277.136 175.906 276.656 176.151 276.048H178.519C178.22 277.296 177.607 278.283 176.679 279.008C175.751 279.733 174.583 280.096 173.175 280.096C172.098 280.096 171.143 279.856 170.311 279.376C169.49 278.885 168.85 278.203 168.391 277.328C167.943 276.453 167.719 275.461 167.719 274.352C167.719 273.232 167.943 272.235 168.391 271.36C168.85 270.485 169.49 269.808 170.311 269.328C171.132 268.837 172.087 268.592 173.175 268.592ZM182.468 268.16V280H180.212V268.16H182.468ZM184.252 268.592C184.252 268.229 184.38 267.936 184.636 267.712C184.892 267.477 185.228 267.36 185.644 267.36C186.06 267.36 186.396 267.477 186.652 267.712C186.908 267.936 187.036 268.229 187.036 268.592C187.036 268.944 186.908 269.237 186.652 269.472C186.396 269.696 186.06 269.808 185.644 269.808C185.228 269.808 184.892 269.696 184.636 269.472C184.38 269.237 184.252 268.944 184.252 268.592ZM186.764 271.136V280H184.508V271.136H186.764ZM197.141 275.232C197.141 275.456 197.115 275.712 197.061 276H190.565C190.597 276.789 190.811 277.371 191.205 277.744C191.6 278.117 192.091 278.304 192.677 278.304C193.2 278.304 193.632 278.176 193.973 277.92C194.325 277.664 194.549 277.317 194.645 276.88H197.029C196.912 277.499 196.661 278.053 196.277 278.544C195.893 279.035 195.397 279.419 194.789 279.696C194.192 279.973 193.525 280.112 192.789 280.112C191.925 280.112 191.157 279.931 190.485 279.568C189.813 279.195 189.291 278.667 188.917 277.984C188.544 277.301 188.357 276.496 188.357 275.568C188.357 274.64 188.544 273.835 188.917 273.152C189.291 272.459 189.813 271.931 190.485 271.568C191.157 271.205 191.925 271.024 192.789 271.024C193.664 271.024 194.427 271.205 195.077 271.568C195.739 271.931 196.245 272.432 196.597 273.072C196.96 273.701 197.141 274.421 197.141 275.232ZM194.869 275.008C194.901 274.283 194.709 273.733 194.293 273.36C193.888 272.987 193.387 272.8 192.789 272.8C192.181 272.8 191.669 272.987 191.253 273.36C190.837 273.733 190.608 274.283 190.565 275.008H194.869ZM204.023 271.008C205.047 271.008 205.863 271.344 206.471 272.016C207.079 272.688 207.383 273.632 207.383 274.848V280H205.143V275.104C205.143 274.4 204.961 273.856 204.599 273.472C204.236 273.077 203.74 272.88 203.111 272.88C202.471 272.88 201.959 273.088 201.575 273.504C201.191 273.92 200.999 274.517 200.999 275.296V280H198.743V271.136H200.999V272.912C201.233 272.315 201.617 271.851 202.151 271.52C202.695 271.179 203.319 271.008 204.023 271.008ZM214.104 278.064V280H212.92C211.928 280 211.165 279.76 210.632 279.28C210.109 278.8 209.848 278 209.848 276.88V273.04H208.616V271.136H209.848V268.944H212.104V271.136H214.088V273.04H212.104V276.912C212.104 277.339 212.189 277.637 212.36 277.808C212.53 277.979 212.818 278.064 213.224 278.064H214.104Z" fill="#232536"/>
<rect x="110" y="252" width="71.9999" height="6.00003" fill="#444CFC"/>
<rect x="120.402" y="252" width="61.5953" height="6.00003" fill="#FFA155"/>
<rect x="120.05" y="252" width="44.6449" height="5.99069" fill="#FFD3AF"/>
<path d="M117.056 222.44C117.44 224.936 118.736 226.184 120.944 226.184C122.624 226.184 123.836 225.452 124.58 223.988C125.324 222.5 125.648 220.184 125.552 217.04C125.168 218.192 124.412 219.116 123.284 219.812C122.18 220.484 120.884 220.82 119.396 220.82C116.948 220.82 115.016 220.088 113.6 218.624C112.208 217.136 111.512 215.036 111.512 212.324C111.512 210.668 111.848 209.192 112.52 207.896C113.192 206.576 114.188 205.544 115.508 204.8C116.852 204.056 118.472 203.684 120.368 203.684C124.064 203.684 126.608 204.812 128 207.068C129.392 209.3 130.088 212.408 130.088 216.392C130.088 220.928 129.38 224.372 127.964 226.724C126.572 229.076 124.232 230.252 120.944 230.252C119.192 230.252 117.68 229.904 116.408 229.208C115.16 228.512 114.188 227.576 113.492 226.4C112.82 225.2 112.424 223.88 112.304 222.44H117.056ZM125.12 212.684C125.12 211.34 124.724 210.236 123.932 209.372C123.164 208.484 122.024 208.04 120.512 208.04C119.216 208.04 118.184 208.424 117.416 209.192C116.648 209.96 116.264 211.028 116.264 212.396C116.264 213.836 116.648 214.952 117.416 215.744C118.208 216.512 119.264 216.896 120.584 216.896C121.808 216.896 122.864 216.536 123.752 215.816C124.664 215.072 125.12 214.028 125.12 212.684ZM151.599 208.544H139.539V214.952C140.091 214.304 140.847 213.788 141.807 213.404C142.791 212.996 143.871 212.792 145.047 212.792C146.799 212.792 148.251 213.176 149.403 213.944C150.579 214.688 151.443 215.696 151.995 216.968C152.571 218.216 152.859 219.608 152.859 221.144C152.859 223.856 152.091 226.028 150.555 227.66C149.043 229.292 146.871 230.108 144.039 230.108C142.191 230.108 140.583 229.784 139.215 229.136C137.847 228.464 136.779 227.54 136.011 226.364C135.243 225.164 134.823 223.772 134.751 222.188H139.683C139.875 223.268 140.319 224.132 141.015 224.78C141.711 225.404 142.635 225.716 143.787 225.716C145.179 225.716 146.211 225.296 146.883 224.456C147.579 223.592 147.927 222.452 147.927 221.036C147.927 219.692 147.567 218.648 146.847 217.904C146.127 217.16 145.107 216.788 143.787 216.788C142.827 216.788 142.011 217.004 141.339 217.436C140.667 217.844 140.175 218.396 139.863 219.092H134.931V204.08H151.599V208.544ZM156.2 217.076C156.2 225.692 159.44 230 165.92 230C169.352 230 171.824 228.848 173.336 226.544C174.848 224.24 175.604 221.084 175.604 217.076C175.604 213.092 174.848 209.948 173.336 207.644C171.824 205.34 169.352 204.188 165.92 204.188C159.44 204.188 156.2 208.484 156.2 217.076ZM170.6 217.076C170.6 219.692 170.276 221.708 169.628 223.124C169.004 224.516 167.768 225.212 165.92 225.212C164.048 225.212 162.788 224.516 162.14 223.124C161.516 221.708 161.204 219.692 161.204 217.076C161.204 214.484 161.516 212.492 162.14 211.1C162.788 209.684 164.048 208.976 165.92 208.976C167.768 208.976 169.004 209.684 169.628 211.1C170.276 212.492 170.6 214.484 170.6 217.076ZM196.622 219.524H189.89V226.364H184.994V219.524H178.262V214.88H184.994V208.004H189.89V214.88H196.622V219.524Z" fill="#232536"/>
<path opacity="0.87" d="M313.28 147.808V152H311.024V140.704H315.136C316.469 140.704 317.472 141.024 318.144 141.664C318.827 142.304 319.168 143.173 319.168 144.272C319.168 145.349 318.816 146.208 318.112 146.848C317.419 147.488 316.427 147.808 315.136 147.808H313.28ZM314.896 146C316.219 146 316.88 145.424 316.88 144.272C316.88 143.707 316.725 143.275 316.416 142.976C316.107 142.677 315.6 142.528 314.896 142.528H313.28V146H314.896ZM322.889 144.832C323.22 144.267 323.657 143.824 324.201 143.504C324.745 143.173 325.353 143.008 326.025 143.008V145.424H325.369C323.716 145.424 322.889 146.192 322.889 147.728V152H320.633V143.136H322.889V144.832ZM331.37 143.024C332.234 143.024 333.007 143.205 333.69 143.568C334.383 143.931 334.927 144.459 335.322 145.152C335.717 145.835 335.914 146.64 335.914 147.568C335.914 148.496 335.717 149.301 335.322 149.984C334.927 150.667 334.383 151.195 333.69 151.568C333.007 151.931 332.234 152.112 331.37 152.112C330.506 152.112 329.727 151.931 329.034 151.568C328.351 151.195 327.813 150.667 327.418 149.984C327.023 149.301 326.826 148.496 326.826 147.568C326.826 146.64 327.023 145.835 327.418 145.152C327.813 144.459 328.351 143.931 329.034 143.568C329.727 143.205 330.506 143.024 331.37 143.024ZM331.37 144.976C330.741 144.976 330.207 145.2 329.77 145.648C329.333 146.085 329.114 146.725 329.114 147.568C329.114 148.411 329.333 149.056 329.77 149.504C330.207 149.941 330.741 150.16 331.37 150.16C331.999 150.16 332.533 149.941 332.97 149.504C333.407 149.056 333.626 148.411 333.626 147.568C333.626 146.725 333.407 146.085 332.97 145.648C332.533 145.2 331.999 144.976 331.37 144.976ZM341.892 141.6C341.231 141.557 340.767 141.653 340.5 141.888C340.234 142.123 340.1 142.533 340.1 143.12V143.136H341.892V145.04H340.1V152H337.844V145.04H336.708V143.136H337.844V142.928C337.844 141.872 338.143 141.061 338.74 140.496C339.348 139.92 340.244 139.632 341.428 139.632C341.631 139.632 341.786 139.637 341.892 139.648V141.6ZM351.579 147.232C351.579 147.456 351.552 147.712 351.499 148H345.003C345.035 148.789 345.248 149.371 345.643 149.744C346.037 150.117 346.528 150.304 347.115 150.304C347.637 150.304 348.069 150.176 348.411 149.92C348.763 149.664 348.987 149.317 349.083 148.88H351.467C351.349 149.499 351.099 150.053 350.715 150.544C350.331 151.035 349.835 151.419 349.227 151.696C348.629 151.973 347.963 152.112 347.227 152.112C346.363 152.112 345.595 151.931 344.923 151.568C344.251 151.195 343.728 150.667 343.355 149.984C342.981 149.301 342.795 148.496 342.795 147.568C342.795 146.64 342.981 145.835 343.355 145.152C343.728 144.459 344.251 143.931 344.923 143.568C345.595 143.205 346.363 143.024 347.227 143.024C348.101 143.024 348.864 143.205 349.515 143.568C350.176 143.931 350.683 144.432 351.035 145.072C351.397 145.701 351.579 146.421 351.579 147.232ZM349.307 147.008C349.339 146.283 349.147 145.733 348.731 145.36C348.325 144.987 347.824 144.8 347.227 144.8C346.619 144.8 346.107 144.987 345.691 145.36C345.275 145.733 345.045 146.283 345.003 147.008H349.307ZM356.236 143.024C357.314 143.024 358.178 143.296 358.828 143.84C359.479 144.384 359.884 145.109 360.044 146.016H357.932C357.847 145.589 357.655 145.248 357.356 144.992C357.058 144.736 356.668 144.608 356.188 144.608C355.804 144.608 355.506 144.699 355.292 144.88C355.079 145.061 354.972 145.307 354.972 145.616C354.972 145.861 355.058 146.059 355.228 146.208C355.399 146.357 355.612 146.475 355.868 146.56C356.124 146.645 356.492 146.747 356.972 146.864C357.644 147.013 358.188 147.173 358.604 147.344C359.031 147.504 359.394 147.765 359.692 148.128C360.002 148.48 360.156 148.96 360.156 149.568C360.156 150.325 359.858 150.939 359.26 151.408C358.674 151.877 357.879 152.112 356.876 152.112C355.724 152.112 354.802 151.856 354.108 151.344C353.415 150.821 352.994 150.08 352.844 149.12H355.004C355.058 149.557 355.25 149.904 355.58 150.16C355.911 150.405 356.343 150.528 356.876 150.528C357.26 150.528 357.554 150.437 357.756 150.256C357.959 150.064 358.06 149.819 358.06 149.52C358.06 149.264 357.97 149.056 357.788 148.896C357.618 148.736 357.399 148.613 357.132 148.528C356.876 148.443 356.508 148.341 356.028 148.224C355.367 148.075 354.828 147.925 354.412 147.776C354.007 147.616 353.655 147.365 353.356 147.024C353.068 146.683 352.924 146.213 352.924 145.616C352.924 144.848 353.218 144.224 353.804 143.744C354.391 143.264 355.202 143.024 356.236 143.024ZM364.893 143.024C365.97 143.024 366.834 143.296 367.485 143.84C368.135 144.384 368.541 145.109 368.701 146.016H366.589C366.503 145.589 366.311 145.248 366.013 144.992C365.714 144.736 365.325 144.608 364.845 144.608C364.461 144.608 364.162 144.699 363.949 144.88C363.735 145.061 363.629 145.307 363.629 145.616C363.629 145.861 363.714 146.059 363.885 146.208C364.055 146.357 364.269 146.475 364.525 146.56C364.781 146.645 365.149 146.747 365.629 146.864C366.301 147.013 366.845 147.173 367.261 147.344C367.687 147.504 368.05 147.765 368.349 148.128C368.658 148.48 368.812 148.96 368.812 149.568C368.812 150.325 368.514 150.939 367.917 151.408C367.33 151.877 366.535 152.112 365.533 152.112C364.381 152.112 363.458 151.856 362.765 151.344C362.071 150.821 361.65 150.08 361.501 149.12H363.661C363.714 149.557 363.906 149.904 364.237 150.16C364.567 150.405 364.999 150.528 365.533 150.528C365.917 150.528 366.21 150.437 366.413 150.256C366.615 150.064 366.717 149.819 366.717 149.52C366.717 149.264 366.626 149.056 366.445 148.896C366.274 148.736 366.055 148.613 365.789 148.528C365.533 148.443 365.165 148.341 364.685 148.224C364.023 148.075 363.485 147.925 363.069 147.776C362.663 147.616 362.311 147.365 362.013 147.024C361.725 146.683 361.581 146.213 361.581 145.616C361.581 144.848 361.874 144.224 362.461 143.744C363.047 143.264 363.858 143.024 364.893 143.024ZM370.237 140.592C370.237 140.229 370.365 139.936 370.621 139.712C370.877 139.477 371.213 139.36 371.629 139.36C372.045 139.36 372.381 139.477 372.637 139.712C372.893 139.936 373.021 140.229 373.021 140.592C373.021 140.944 372.893 141.237 372.637 141.472C372.381 141.696 372.045 141.808 371.629 141.808C371.213 141.808 370.877 141.696 370.621 141.472C370.365 141.237 370.237 140.944 370.237 140.592ZM372.749 143.136V152H370.493V143.136H372.749ZM378.886 143.024C379.75 143.024 380.523 143.205 381.206 143.568C381.899 143.931 382.443 144.459 382.838 145.152C383.232 145.835 383.43 146.64 383.43 147.568C383.43 148.496 383.232 149.301 382.838 149.984C382.443 150.667 381.899 151.195 381.206 151.568C380.523 151.931 379.75 152.112 378.886 152.112C378.022 152.112 377.243 151.931 376.55 151.568C375.867 151.195 375.328 150.667 374.934 149.984C374.539 149.301 374.342 148.496 374.342 147.568C374.342 146.64 374.539 145.835 374.934 145.152C375.328 144.459 375.867 143.931 376.55 143.568C377.243 143.205 378.022 143.024 378.886 143.024ZM378.886 144.976C378.256 144.976 377.723 145.2 377.286 145.648C376.848 146.085 376.63 146.725 376.63 147.568C376.63 148.411 376.848 149.056 377.286 149.504C377.723 149.941 378.256 150.16 378.886 150.16C379.515 150.16 380.048 149.941 380.486 149.504C380.923 149.056 381.142 148.411 381.142 147.568C381.142 146.725 380.923 146.085 380.486 145.648C380.048 145.2 379.515 144.976 378.886 144.976ZM390.304 143.008C391.328 143.008 392.144 143.344 392.752 144.016C393.36 144.688 393.664 145.632 393.664 146.848V152H391.424V147.104C391.424 146.4 391.243 145.856 390.88 145.472C390.517 145.077 390.021 144.88 389.392 144.88C388.752 144.88 388.24 145.088 387.856 145.504C387.472 145.92 387.28 146.517 387.28 147.296V152H385.024V143.136H387.28V144.912C387.515 144.315 387.899 143.851 388.432 143.52C388.976 143.179 389.6 143.008 390.304 143.008ZM399.121 143.024C399.868 143.024 400.508 143.2 401.041 143.552C401.574 143.904 401.953 144.379 402.177 144.976V143.136H404.417V152H402.177V150.144C401.953 150.741 401.574 151.221 401.041 151.584C400.508 151.936 399.868 152.112 399.121 152.112C398.374 152.112 397.702 151.931 397.105 151.568C396.508 151.205 396.038 150.683 395.697 150C395.366 149.307 395.201 148.496 395.201 147.568C395.201 146.64 395.366 145.835 395.697 145.152C396.038 144.459 396.508 143.931 397.105 143.568C397.702 143.205 398.374 143.024 399.121 143.024ZM399.825 144.992C399.121 144.992 398.556 145.221 398.129 145.68C397.702 146.139 397.489 146.768 397.489 147.568C397.489 148.368 397.702 148.997 398.129 149.456C398.556 149.904 399.121 150.128 399.825 150.128C400.508 150.128 401.068 149.899 401.505 149.44C401.953 148.971 402.177 148.347 402.177 147.568C402.177 146.779 401.953 146.155 401.505 145.696C401.068 145.227 400.508 144.992 399.825 144.992ZM408.718 140.16V152H406.462V140.16H408.718Z" fill="#232536"/>
<rect x="310" y="124" width="71.9999" height="6.00003" fill="#444CFC"/>
<rect x="320.402" y="124" width="61.5953" height="6.00003" fill="#FFA155"/>
<rect x="320.05" y="124" width="44.6449" height="5.99069" fill="#FFD3AF"/>
<path d="M310.432 81.336V76.584H319.576V102H314.248V81.336H310.432ZM323.575 89.076C323.575 97.692 326.815 102 333.295 102C336.727 102 339.199 100.848 340.711 98.544C342.223 96.24 342.979 93.084 342.979 89.076C342.979 85.092 342.223 81.948 340.711 79.644C339.199 77.34 336.727 76.188 333.295 76.188C326.815 76.188 323.575 80.484 323.575 89.076ZM337.975 89.076C337.975 91.692 337.651 93.708 337.003 95.124C336.379 96.516 335.143 97.212 333.295 97.212C331.423 97.212 330.163 96.516 329.515 95.124C328.891 93.708 328.579 91.692 328.579 89.076C328.579 86.484 328.891 84.492 329.515 83.1C330.163 81.684 331.423 80.976 333.295 80.976C335.143 80.976 336.379 81.684 337.003 83.1C337.651 84.492 337.975 86.484 337.975 89.076ZM346.321 89.076C346.321 97.692 349.561 102 356.041 102C359.473 102 361.945 100.848 363.457 98.544C364.969 96.24 365.725 93.084 365.725 89.076C365.725 85.092 364.969 81.948 363.457 79.644C361.945 77.34 359.473 76.188 356.041 76.188C349.561 76.188 346.321 80.484 346.321 89.076ZM360.721 89.076C360.721 91.692 360.397 93.708 359.749 95.124C359.125 96.516 357.889 97.212 356.041 97.212C354.169 97.212 352.909 96.516 352.261 95.124C351.637 93.708 351.325 91.692 351.325 89.076C351.325 86.484 351.637 84.492 352.261 83.1C352.909 81.684 354.169 80.976 356.041 80.976C357.889 80.976 359.125 81.684 359.749 83.1C360.397 84.492 360.721 86.484 360.721 89.076ZM386.743 91.524H380.011V98.364H375.115V91.524H368.383V86.88H375.115V80.004H380.011V86.88H386.743V91.524Z" fill="#232536"/>
<path opacity="0.87" d="M113.28 147.808V152H111.024V140.704H115.136C116.469 140.704 117.472 141.024 118.144 141.664C118.827 142.304 119.168 143.173 119.168 144.272C119.168 145.349 118.816 146.208 118.112 146.848C117.419 147.488 116.427 147.808 115.136 147.808H113.28ZM114.896 146C116.219 146 116.88 145.424 116.88 144.272C116.88 143.707 116.725 143.275 116.416 142.976C116.107 142.677 115.6 142.528 114.896 142.528H113.28V146H114.896ZM122.889 144.832C123.22 144.267 123.657 143.824 124.201 143.504C124.745 143.173 125.353 143.008 126.025 143.008V145.424H125.369C123.716 145.424 122.889 146.192 122.889 147.728V152H120.633V143.136H122.889V144.832ZM131.37 143.024C132.234 143.024 133.007 143.205 133.69 143.568C134.383 143.931 134.927 144.459 135.322 145.152C135.717 145.835 135.914 146.64 135.914 147.568C135.914 148.496 135.717 149.301 135.322 149.984C134.927 150.667 134.383 151.195 133.69 151.568C133.007 151.931 132.234 152.112 131.37 152.112C130.506 152.112 129.727 151.931 129.034 151.568C128.351 151.195 127.813 150.667 127.418 149.984C127.023 149.301 126.826 148.496 126.826 147.568C126.826 146.64 127.023 145.835 127.418 145.152C127.813 144.459 128.351 143.931 129.034 143.568C129.727 143.205 130.506 143.024 131.37 143.024ZM131.37 144.976C130.741 144.976 130.207 145.2 129.77 145.648C129.333 146.085 129.114 146.725 129.114 147.568C129.114 148.411 129.333 149.056 129.77 149.504C130.207 149.941 130.741 150.16 131.37 150.16C131.999 150.16 132.533 149.941 132.97 149.504C133.407 149.056 133.626 148.411 133.626 147.568C133.626 146.725 133.407 146.085 132.97 145.648C132.533 145.2 131.999 144.976 131.37 144.976ZM138.692 141.808C138.276 141.808 137.94 141.696 137.684 141.472C137.428 141.237 137.3 140.944 137.3 140.592C137.3 140.229 137.428 139.936 137.684 139.712C137.94 139.477 138.276 139.36 138.692 139.36C139.108 139.36 139.444 139.477 139.7 139.712C139.956 139.947 140.084 140.24 140.084 140.592C140.084 140.944 139.956 141.237 139.7 141.472C139.444 141.696 139.108 141.808 138.692 141.808ZM136.004 154.272H136.644C136.975 154.272 137.21 154.203 137.348 154.064C137.498 153.925 137.572 153.685 137.572 153.344V143.136H139.828V153.344C139.828 155.264 138.863 156.224 136.932 156.224H136.004V154.272ZM150.204 147.232C150.204 147.456 150.177 147.712 150.124 148H143.628C143.66 148.789 143.873 149.371 144.268 149.744C144.662 150.117 145.153 150.304 145.74 150.304C146.262 150.304 146.694 150.176 147.036 149.92C147.388 149.664 147.612 149.317 147.708 148.88H150.092C149.974 149.499 149.724 150.053 149.34 150.544C148.956 151.035 148.46 151.419 147.852 151.696C147.254 151.973 146.588 152.112 145.852 152.112C144.988 152.112 144.22 151.931 143.548 151.568C142.876 151.195 142.353 150.667 141.98 149.984C141.606 149.301 141.42 148.496 141.42 147.568C141.42 146.64 141.606 145.835 141.98 145.152C142.353 144.459 142.876 143.931 143.548 143.568C144.22 143.205 144.988 143.024 145.852 143.024C146.726 143.024 147.489 143.205 148.14 143.568C148.801 143.931 149.308 144.432 149.66 145.072C150.022 145.701 150.204 146.421 150.204 147.232ZM147.932 147.008C147.964 146.283 147.772 145.733 147.356 145.36C146.95 144.987 146.449 144.8 145.852 144.8C145.244 144.8 144.732 144.987 144.316 145.36C143.9 145.733 143.67 146.283 143.628 147.008H147.932ZM155.789 143.024C156.931 143.024 157.88 143.333 158.637 143.952C159.405 144.571 159.885 145.413 160.077 146.48H157.693C157.597 146.011 157.379 145.643 157.037 145.376C156.696 145.099 156.264 144.96 155.741 144.96C155.144 144.96 154.643 145.184 154.237 145.632C153.843 146.069 153.645 146.715 153.645 147.568C153.645 148.421 153.843 149.072 154.237 149.52C154.643 149.957 155.144 150.176 155.741 150.176C156.264 150.176 156.696 150.043 157.037 149.776C157.379 149.499 157.597 149.125 157.693 148.656H160.077C159.885 149.723 159.405 150.565 158.637 151.184C157.88 151.803 156.931 152.112 155.789 152.112C154.925 152.112 154.157 151.931 153.485 151.568C152.813 151.195 152.291 150.667 151.917 149.984C151.544 149.301 151.357 148.496 151.357 147.568C151.357 146.64 151.544 145.835 151.917 145.152C152.291 144.459 152.813 143.931 153.485 143.568C154.157 143.205 154.925 143.024 155.789 143.024ZM166.416 150.064V152H165.232C164.24 152 163.478 151.76 162.944 151.28C162.422 150.8 162.16 150 162.16 148.88V145.04H160.928V143.136H162.16V140.944H164.416V143.136H166.4V145.04H164.416V148.912C164.416 149.339 164.502 149.637 164.672 149.808C164.843 149.979 165.131 150.064 165.536 150.064H166.416ZM181.46 146.336C181.46 147.456 181.225 148.443 180.756 149.296C180.287 150.149 179.604 150.816 178.708 151.296C177.823 151.765 176.767 152 175.54 152H171.524V140.704H175.54C176.767 140.704 177.823 140.939 178.708 141.408C179.604 141.867 180.287 142.523 180.756 143.376C181.225 144.219 181.46 145.205 181.46 146.336ZM175.348 149.984C176.564 149.984 177.503 149.664 178.164 149.024C178.836 148.384 179.172 147.488 179.172 146.336C179.172 145.173 178.836 144.272 178.164 143.632C177.503 142.992 176.564 142.672 175.348 142.672H173.78V149.984H175.348ZM191.485 147.232C191.485 147.456 191.458 147.712 191.405 148H184.909C184.941 148.789 185.154 149.371 185.549 149.744C185.944 150.117 186.434 150.304 187.021 150.304C187.544 150.304 187.976 150.176 188.317 149.92C188.669 149.664 188.893 149.317 188.989 148.88H191.373C191.256 149.499 191.005 150.053 190.621 150.544C190.237 151.035 189.741 151.419 189.133 151.696C188.536 151.973 187.869 152.112 187.133 152.112C186.269 152.112 185.501 151.931 184.829 151.568C184.157 151.195 183.634 150.667 183.261 149.984C182.888 149.301 182.701 148.496 182.701 147.568C182.701 146.64 182.888 145.835 183.261 145.152C183.634 144.459 184.157 143.931 184.829 143.568C185.501 143.205 186.269 143.024 187.133 143.024C188.008 143.024 188.77 143.205 189.421 143.568C190.082 143.931 190.589 144.432 190.941 145.072C191.304 145.701 191.485 146.421 191.485 147.232ZM189.213 147.008C189.245 146.283 189.053 145.733 188.637 145.36C188.232 144.987 187.73 144.8 187.133 144.8C186.525 144.8 186.013 144.987 185.597 145.36C185.181 145.733 184.952 146.283 184.909 147.008H189.213ZM195.343 140.16V152H193.087V140.16H195.343ZM197.127 140.592C197.127 140.229 197.255 139.936 197.511 139.712C197.767 139.477 198.103 139.36 198.519 139.36C198.935 139.36 199.271 139.477 199.527 139.712C199.783 139.936 199.911 140.229 199.911 140.592C199.911 140.944 199.783 141.237 199.527 141.472C199.271 141.696 198.935 141.808 198.519 141.808C198.103 141.808 197.767 141.696 197.511 141.472C197.255 141.237 197.127 140.944 197.127 140.592ZM199.639 143.136V152H197.383V143.136H199.639ZM205.536 149.744L207.776 143.136H210.176L206.896 152H204.144L200.864 143.136H203.28L205.536 149.744ZM219.766 147.232C219.766 147.456 219.74 147.712 219.686 148H213.19C213.222 148.789 213.436 149.371 213.83 149.744C214.225 150.117 214.716 150.304 215.302 150.304C215.825 150.304 216.257 150.176 216.598 149.92C216.95 149.664 217.174 149.317 217.27 148.88H219.654C219.537 149.499 219.286 150.053 218.902 150.544C218.518 151.035 218.022 151.419 217.414 151.696C216.817 151.973 216.15 152.112 215.414 152.112C214.55 152.112 213.782 151.931 213.11 151.568C212.438 151.195 211.916 150.667 211.542 149.984C211.169 149.301 210.982 148.496 210.982 147.568C210.982 146.64 211.169 145.835 211.542 145.152C211.916 144.459 212.438 143.931 213.11 143.568C213.782 143.205 214.55 143.024 215.414 143.024C216.289 143.024 217.052 143.205 217.702 143.568C218.364 143.931 218.87 144.432 219.222 145.072C219.585 145.701 219.766 146.421 219.766 147.232ZM217.494 147.008C217.526 146.283 217.334 145.733 216.918 145.36C216.513 144.987 216.012 144.8 215.414 144.8C214.806 144.8 214.294 144.987 213.878 145.36C213.462 145.733 213.233 146.283 213.19 147.008H217.494ZM223.624 144.832C223.954 144.267 224.392 143.824 224.936 143.504C225.48 143.173 226.088 143.008 226.76 143.008V145.424H226.104C224.45 145.424 223.624 146.192 223.624 147.728V152H221.368V143.136H223.624V144.832ZM236.344 147.232C236.344 147.456 236.318 147.712 236.264 148H229.768C229.8 148.789 230.014 149.371 230.408 149.744C230.803 150.117 231.294 150.304 231.88 150.304C232.403 150.304 232.835 150.176 233.176 149.92C233.528 149.664 233.752 149.317 233.848 148.88H236.232C236.115 149.499 235.864 150.053 235.48 150.544C235.096 151.035 234.6 151.419 233.992 151.696C233.395 151.973 232.728 152.112 231.992 152.112C231.128 152.112 230.36 151.931 229.688 151.568C229.016 151.195 228.494 150.667 228.12 149.984C227.747 149.301 227.56 148.496 227.56 147.568C227.56 146.64 227.747 145.835 228.12 145.152C228.494 144.459 229.016 143.931 229.688 143.568C230.36 143.205 231.128 143.024 231.992 143.024C232.867 143.024 233.63 143.205 234.28 143.568C234.942 143.931 235.448 144.432 235.8 145.072C236.163 145.701 236.344 146.421 236.344 147.232ZM234.072 147.008C234.104 146.283 233.912 145.733 233.496 145.36C233.091 144.987 232.59 144.8 231.992 144.8C231.384 144.8 230.872 144.987 230.456 145.36C230.04 145.733 229.811 146.283 229.768 147.008H234.072ZM241.418 143.024C242.165 143.024 242.799 143.2 243.322 143.552C243.855 143.904 244.239 144.379 244.474 144.976V140.16H246.714V152H244.474V150.144C244.239 150.741 243.855 151.221 243.322 151.584C242.799 151.936 242.165 152.112 241.418 152.112C240.671 152.112 239.999 151.931 239.402 151.568C238.805 151.205 238.335 150.683 237.994 150C237.663 149.307 237.498 148.496 237.498 147.568C237.498 146.64 237.663 145.835 237.994 145.152C238.335 144.459 238.805 143.931 239.402 143.568C239.999 143.205 240.671 143.024 241.418 143.024ZM242.122 144.992C241.418 144.992 240.853 145.221 240.426 145.68C239.999 146.139 239.786 146.768 239.786 147.568C239.786 148.368 239.999 148.997 240.426 149.456C240.853 149.904 241.418 150.128 242.122 150.128C242.805 150.128 243.365 149.899 243.802 149.44C244.25 148.971 244.474 148.347 244.474 147.568C244.474 146.779 244.25 146.155 243.802 145.696C243.365 145.227 242.805 144.992 242.122 144.992Z" fill="#232536"/>
<rect x="110" y="124" width="71.9999" height="6.00003" fill="#444CFC"/>
<rect x="120.402" y="124" width="61.5953" height="6.00003" fill="#FFA155"/>
<rect x="120.05" y="124" width="44.6449" height="5.99069" fill="#FFD3AF"/>
<path d="M110.432 81.336V76.584H119.576V102H114.248V81.336H110.432ZM141.755 80.544H129.695V86.952C130.247 86.304 131.003 85.788 131.963 85.404C132.947 84.996 134.027 84.792 135.203 84.792C136.955 84.792 138.407 85.176 139.559 85.944C140.735 86.688 141.599 87.696 142.151 88.968C142.727 90.216 143.015 91.608 143.015 93.144C143.015 95.856 142.247 98.028 140.711 99.66C139.199 101.292 137.027 102.108 134.195 102.108C132.347 102.108 130.739 101.784 129.371 101.136C128.003 100.464 126.935 99.54 126.167 98.364C125.399 97.164 124.979 95.772 124.907 94.188H129.839C130.031 95.268 130.475 96.132 131.171 96.78C131.867 97.404 132.791 97.716 133.943 97.716C135.335 97.716 136.367 97.296 137.039 96.456C137.735 95.592 138.083 94.452 138.083 93.036C138.083 91.692 137.723 90.648 137.003 89.904C136.283 89.16 135.263 88.788 133.943 88.788C132.983 88.788 132.167 89.004 131.495 89.436C130.823 89.844 130.331 90.396 130.019 91.092H125.087V76.08H141.755V80.544ZM159.82 83.496C159.436 81 158.164 79.752 156.004 79.752C154.324 79.752 153.1 80.496 152.332 81.984C151.564 83.448 151.228 85.752 151.324 88.896C151.708 87.744 152.452 86.832 153.556 86.16C154.684 85.464 155.992 85.116 157.48 85.116C159.928 85.116 161.848 85.86 163.24 87.348C164.656 88.812 165.364 90.9 165.364 93.612C165.364 95.292 165.028 96.78 164.356 98.076C163.684 99.372 162.676 100.392 161.332 101.136C160.012 101.88 158.404 102.252 156.508 102.252C152.812 102.252 150.268 101.112 148.876 98.832C147.484 96.528 146.788 93.36 146.788 89.328C146.788 84.696 147.532 81.264 149.02 79.032C150.532 76.8 152.968 75.684 156.328 75.684C158.896 75.684 160.864 76.416 162.232 77.88C163.6 79.344 164.38 81.216 164.572 83.496H159.82ZM151.756 93.252C151.756 94.596 152.14 95.712 152.908 96.6C153.7 97.464 154.852 97.896 156.364 97.896C157.66 97.896 158.692 97.512 159.46 96.744C160.228 95.976 160.612 94.908 160.612 93.54C160.612 92.1 160.216 90.996 159.424 90.228C158.656 89.46 157.612 89.076 156.292 89.076C155.044 89.076 153.976 89.436 153.088 90.156C152.2 90.876 151.756 91.908 151.756 93.252ZM168.856 89.076C168.856 97.692 172.096 102 178.576 102C182.008 102 184.48 100.848 185.992 98.544C187.504 96.24 188.26 93.084 188.26 89.076C188.26 85.092 187.504 81.948 185.992 79.644C184.48 77.34 182.008 76.188 178.576 76.188C172.096 76.188 168.856 80.484 168.856 89.076ZM183.256 89.076C183.256 91.692 182.932 93.708 182.284 95.124C181.66 96.516 180.424 97.212 178.576 97.212C176.704 97.212 175.444 96.516 174.796 95.124C174.172 93.708 173.86 91.692 173.86 89.076C173.86 86.484 174.172 84.492 174.796 83.1C175.444 81.684 176.704 80.976 178.576 80.976C180.424 80.976 181.66 81.684 182.284 83.1C182.932 84.492 183.256 86.484 183.256 89.076ZM209.278 91.524H202.546V98.364H197.65V91.524H190.918V86.88H197.65V80.004H202.546V86.88H209.278V91.524Z" fill="#232536"/>
</svg>
